<?xml version="1.0" encoding="UTF-8"?>
<svg xmlns="http://www.w3.org/2000/svg" xmlns:xlink="http://www.w3.org/1999/xlink" width="36px" height="36px" viewBox="0 0 36 36" version="1.1">
<g id="surface1">
<path style=" stroke:none;fill-rule:nonzero;fill:rgb(10.980392%,27.843139%,55.29412%);fill-opacity:1;" d="M 19.632812 10.039062 C 19.726562 10.113281 19.800781 10.191406 19.875 10.285156 C 19.886719 10.300781 19.898438 10.3125 19.90625 10.328125 C 20.011719 10.464844 20.101562 10.609375 20.191406 10.753906 C 20.210938 10.789062 20.234375 10.824219 20.253906 10.855469 C 20.703125 11.578125 21.042969 12.394531 21.207031 13.230469 C 21.210938 13.246094 21.210938 13.246094 21.214844 13.265625 C 21.253906 13.476562 21.253906 13.476562 21.25 13.585938 C 21.167969 13.5625 21.085938 13.539062 21.003906 13.511719 C 20.820312 13.445312 20.636719 13.394531 20.445312 13.359375 C 20.425781 13.355469 20.410156 13.351562 20.390625 13.347656 C 18.960938 13.085938 17.421875 13.519531 13.710938 15.214844 C 13.679688 15.238281 13.648438 15.257812 13.617188 15.277344 C 13.46875 15.375 13.324219 15.484375 13.183594 15.59375 C 13.171875 15.601562 13.160156 15.609375 13.152344 15.617188 C 13.015625 15.71875 12.886719 15.828125 12.765625 15.945312 C 12.726562 15.980469 12.683594 16.015625 12.644531 16.050781 C 12.558594 16.125 12.480469 16.203125 12.402344 16.28125 C 12.375 16.308594 12.351562 16.332031 12.324219 16.355469 C 12.21875 16.464844 12.117188 16.578125 12.023438 16.699219 C 12 16.726562 11.980469 16.753906 11.957031 16.78125 C 11.746094 17.042969 11.574219 17.339844 11.40625 17.632812 C 11.382812 17.566406 11.398438 17.527344 11.421875 17.460938 C 11.429688 17.445312 11.4375 17.425781 11.441406 17.40625 C 11.449219 17.386719 11.457031 17.367188 11.464844 17.34375 C 11.472656 17.324219 11.480469 17.304688 11.488281 17.285156 C 11.511719 17.214844 11.539062 17.148438 11.566406 17.078125 C 11.59375 17 11.613281 16.941406 11.601562 16.859375 C 11.554688 16.800781 11.511719 16.761719 11.445312 16.734375 C 11.394531 16.730469 11.347656 16.730469 11.296875 16.730469 C 11.277344 16.730469 11.277344 16.730469 11.257812 16.730469 C 11.171875 16.730469 11.089844 16.738281 11.003906 16.75 C 11.0625 16.683594 11.128906 16.652344 11.207031 16.617188 C 11.222656 16.613281 11.234375 16.605469 11.246094 16.601562 C 11.402344 16.535156 11.554688 16.519531 11.726562 16.507812 C 11.722656 16.488281 11.71875 16.46875 11.71875 16.449219 C 11.726562 16.382812 11.726562 16.382812 11.773438 16.339844 C 11.78125 16.335938 11.789062 16.328125 11.800781 16.320312 C 11.882812 16.25 11.929688 16.132812 11.9375 16.027344 C 11.9375 16.015625 11.9375 16 11.9375 15.988281 C 11.9375 15.972656 11.9375 15.960938 11.941406 15.945312 C 11.933594 15.902344 11.921875 15.875 11.898438 15.835938 C 11.910156 15.832031 11.917969 15.828125 11.925781 15.820312 C 12.023438 15.746094 12.058594 15.671875 12.09375 15.554688 C 12.097656 15.539062 12.105469 15.523438 12.109375 15.503906 C 12.121094 15.40625 12.113281 15.328125 12.078125 15.238281 C 12.0625 15.191406 12.0625 15.191406 12.058594 15.152344 C 12.078125 15.113281 12.105469 15.089844 12.132812 15.0625 C 12.246094 14.941406 12.246094 14.785156 12.246094 14.632812 C 12.242188 14.527344 12.222656 14.445312 12.164062 14.355469 C 12.148438 14.328125 12.148438 14.328125 12.148438 14.273438 C 12.167969 14.25 12.191406 14.222656 12.210938 14.199219 C 12.289062 14.097656 12.296875 13.980469 12.296875 13.855469 C 12.296875 13.839844 12.296875 13.824219 12.296875 13.808594 C 12.292969 13.632812 12.230469 13.5 12.128906 13.359375 C 12.117188 13.335938 12.105469 13.3125 12.09375 13.289062 C 12.117188 13.277344 12.117188 13.277344 12.140625 13.261719 C 12.242188 13.195312 12.292969 13.085938 12.320312 12.972656 C 12.34375 12.777344 12.332031 12.601562 12.234375 12.429688 C 12.226562 12.410156 12.214844 12.394531 12.207031 12.378906 C 12.183594 12.335938 12.183594 12.335938 12.148438 12.320312 C 12.148438 12.3125 12.148438 12.300781 12.148438 12.289062 C 12.15625 12.285156 12.167969 12.285156 12.179688 12.28125 C 12.320312 12.257812 12.425781 12.214844 12.519531 12.101562 C 12.625 11.949219 12.683594 11.773438 12.65625 11.585938 C 12.632812 11.511719 12.601562 11.441406 12.570312 11.375 C 12.585938 11.371094 12.605469 11.371094 12.625 11.367188 C 12.808594 11.351562 12.960938 11.324219 13.09375 11.183594 C 13.179688 11.074219 13.226562 10.957031 13.226562 10.816406 C 13.214844 10.753906 13.191406 10.695312 13.164062 10.632812 C 13.175781 10.636719 13.1875 10.636719 13.199219 10.636719 C 13.25 10.636719 13.296875 10.636719 13.347656 10.640625 C 13.375 10.640625 13.375 10.640625 13.398438 10.640625 C 13.523438 10.644531 13.617188 10.617188 13.726562 10.5625 C 13.742188 10.558594 13.753906 10.554688 13.765625 10.546875 C 13.8125 10.519531 13.816406 10.488281 13.835938 10.441406 C 13.839844 10.429688 13.84375 10.417969 13.851562 10.40625 C 13.851562 10.359375 13.851562 10.3125 13.851562 10.265625 C 13.851562 10.25 13.851562 10.230469 13.851562 10.210938 C 13.871094 10.222656 13.894531 10.230469 13.914062 10.238281 C 14.042969 10.285156 14.21875 10.324219 14.347656 10.265625 C 14.355469 10.261719 14.367188 10.253906 14.378906 10.246094 C 14.429688 10.210938 14.429688 10.210938 14.46875 10.214844 C 14.535156 10.234375 14.59375 10.261719 14.65625 10.289062 C 14.683594 10.300781 14.707031 10.3125 14.734375 10.328125 C 14.757812 10.335938 14.757812 10.335938 14.78125 10.347656 C 15.851562 10.835938 17.113281 11.402344 18.316406 11.109375 C 18.335938 11.105469 18.335938 11.105469 18.359375 11.097656 C 18.660156 11.023438 18.953125 10.902344 19.195312 10.703125 C 19.210938 10.691406 19.210938 10.691406 19.226562 10.679688 C 19.425781 10.53125 19.582031 10.277344 19.632812 10.039062 Z M 19.632812 10.039062 "/>
<path style=" stroke:none;fill-rule:nonzero;fill:rgb(8.235294%,15.294118%,36.078432%);fill-opacity:1;" d="M 19.554688 13.457031 C 19.574219 13.457031 19.597656 13.457031 19.617188 13.457031 C 20.527344 13.460938 21.304688 13.683594 22.035156 14.230469 C 22.226562 14.371094 22.417969 14.503906 22.625 14.625 C 22.636719 14.632812 22.648438 14.640625 22.660156 14.648438 C 23.046875 14.871094 23.480469 15 23.917969 15.078125 C 23.949219 15.082031 23.949219 15.082031 23.980469 15.085938 C 24.304688 15.140625 24.625 15.15625 24.949219 15.160156 C 24.984375 15.160156 25.019531 15.160156 25.054688 15.160156 C 25.148438 15.160156 25.242188 15.160156 25.339844 15.160156 C 25.398438 15.160156 25.457031 15.160156 25.515625 15.160156 C 26.269531 15.160156 27.019531 15.128906 27.769531 15.089844 C 27.976562 15.078125 28.183594 15.070312 28.390625 15.0625 C 28.410156 15.0625 28.425781 15.0625 28.441406 15.058594 C 28.789062 15.046875 29.140625 15.039062 29.488281 15.027344 C 29.535156 15.027344 29.578125 15.027344 29.621094 15.023438 C 30.003906 15.015625 30.382812 15.007812 30.761719 15.011719 C 30.761719 15.015625 30.761719 15.023438 30.761719 15.03125 C 30.617188 15.050781 30.46875 15.066406 30.320312 15.074219 C 29.882812 15.097656 29.445312 15.140625 29.007812 15.183594 C 28.917969 15.191406 28.828125 15.199219 28.738281 15.207031 C 28.652344 15.214844 28.566406 15.222656 28.476562 15.230469 C 28.4375 15.234375 28.394531 15.238281 28.355469 15.242188 C 28.296875 15.246094 28.238281 15.253906 28.183594 15.257812 C 28.164062 15.257812 28.148438 15.261719 28.132812 15.261719 C 28.070312 15.269531 28.007812 15.273438 27.945312 15.285156 C 27.882812 15.296875 27.820312 15.300781 27.753906 15.304688 C 27.726562 15.304688 27.695312 15.308594 27.667969 15.308594 C 27.652344 15.308594 27.636719 15.3125 27.621094 15.3125 C 27.21875 15.339844 26.816406 15.375 26.414062 15.414062 C 26.339844 15.417969 26.269531 15.425781 26.195312 15.433594 C 25.621094 15.484375 25.050781 15.546875 24.484375 15.679688 C 24.464844 15.683594 24.445312 15.6875 24.425781 15.691406 C 24.375 15.707031 24.324219 15.71875 24.273438 15.734375 C 24.261719 15.734375 24.25 15.738281 24.238281 15.742188 C 23.863281 15.84375 23.441406 15.976562 23.132812 16.226562 C 23.144531 16.226562 23.160156 16.230469 23.171875 16.230469 C 23.460938 16.277344 23.738281 16.328125 24.011719 16.417969 C 24.027344 16.421875 24.046875 16.429688 24.0625 16.433594 C 24.476562 16.566406 24.875 16.730469 25.242188 16.960938 C 25.1875 16.980469 25.171875 16.980469 25.117188 16.964844 C 25.097656 16.960938 25.097656 16.960938 25.074219 16.953125 C 25.050781 16.945312 25.050781 16.945312 25.027344 16.941406 C 24.5625 16.824219 24.085938 16.8125 23.609375 16.855469 C 23.585938 16.855469 23.585938 16.855469 23.566406 16.859375 C 23.421875 16.875 23.285156 16.921875 23.148438 16.972656 C 23.054688 17.003906 22.964844 17.039062 22.867188 17.070312 C 22.851562 17.074219 22.835938 17.078125 22.820312 17.085938 C 21.285156 17.589844 21.285156 17.589844 20.828125 17.4375 C 20.828125 17.425781 20.828125 17.414062 20.828125 17.402344 C 20.621094 17.40625 20.414062 17.414062 20.195312 17.421875 C 20.15625 17.507812 20.15625 17.507812 20.113281 17.597656 C 19.976562 17.894531 19.808594 18.171875 19.601562 18.421875 C 19.589844 18.433594 19.582031 18.441406 19.574219 18.453125 C 19.398438 18.667969 19.207031 18.867188 18.984375 19.039062 C 18.976562 19.042969 18.964844 19.050781 18.953125 19.058594 C 18.828125 19.15625 18.699219 19.246094 18.566406 19.332031 C 18.554688 19.339844 18.542969 19.347656 18.53125 19.355469 C 18.5 19.375 18.46875 19.390625 18.4375 19.40625 C 18.421875 19.402344 18.40625 19.394531 18.386719 19.390625 C 18.40625 19.375 18.40625 19.375 18.421875 19.363281 C 18.527344 19.289062 18.621094 19.210938 18.714844 19.125 C 18.75 19.09375 18.785156 19.066406 18.820312 19.035156 C 18.875 18.988281 18.921875 18.941406 18.964844 18.886719 C 18.992188 18.855469 19.019531 18.820312 19.050781 18.789062 C 19.1875 18.636719 19.308594 18.472656 19.421875 18.296875 C 19.4375 18.28125 19.449219 18.265625 19.460938 18.246094 C 19.59375 18.039062 19.699219 17.816406 19.8125 17.59375 C 19.730469 17.652344 19.65625 17.714844 19.582031 17.777344 C 19.332031 17.988281 19.042969 18.164062 18.757812 18.316406 C 18.746094 18.320312 18.734375 18.328125 18.722656 18.332031 C 18.207031 18.605469 17.652344 18.785156 17.082031 18.902344 C 17.066406 18.90625 17.054688 18.910156 17.039062 18.914062 C 16.972656 18.925781 16.921875 18.933594 16.859375 18.914062 C 16.875 18.910156 16.890625 18.902344 16.910156 18.898438 C 17.335938 18.757812 17.335938 18.757812 17.75 18.582031 C 17.796875 18.558594 17.839844 18.539062 17.886719 18.515625 C 18.476562 18.230469 19.082031 17.859375 19.542969 17.386719 C 19.582031 17.351562 19.582031 17.351562 19.617188 17.351562 C 19.617188 17.339844 19.617188 17.328125 19.617188 17.3125 C 19.601562 17.316406 19.601562 17.316406 19.585938 17.316406 C 19.414062 17.320312 19.25 17.300781 19.082031 17.285156 C 18.921875 17.269531 18.757812 17.257812 18.597656 17.242188 C 18.578125 17.242188 18.578125 17.242188 18.554688 17.242188 C 17.765625 17.175781 16.925781 17.15625 16.136719 17.261719 C 16.109375 17.265625 16.085938 17.269531 16.058594 17.269531 C 15.699219 17.316406 15.335938 17.367188 14.984375 17.457031 C 14.921875 17.472656 14.921875 17.472656 14.851562 17.472656 C 14.851562 17.484375 14.847656 17.496094 14.84375 17.503906 C 14.667969 18.109375 14.34375 18.664062 13.917969 19.121094 C 13.910156 19.132812 13.902344 19.140625 13.894531 19.152344 C 13.835938 19.210938 13.777344 19.265625 13.710938 19.320312 C 13.738281 19.210938 13.769531 19.101562 13.804688 18.992188 C 13.867188 18.757812 13.863281 18.492188 13.75 18.277344 C 13.671875 18.183594 13.578125 18.128906 13.457031 18.113281 C 13.234375 18.097656 13.097656 18.171875 12.921875 18.296875 C 12.902344 18.308594 12.902344 18.308594 12.886719 18.320312 C 12.707031 18.445312 12.707031 18.445312 12.617188 18.636719 C 12.566406 18.945312 12.617188 19.230469 12.742188 19.511719 C 12.753906 19.539062 12.753906 19.539062 12.761719 19.5625 C 12.570312 19.496094 12.433594 19.3125 12.34375 19.136719 C 12.335938 19.121094 12.328125 19.105469 12.320312 19.089844 C 12.253906 19.238281 12.207031 19.386719 12.171875 19.546875 C 12.164062 19.578125 12.15625 19.613281 12.148438 19.648438 C 12.09375 19.902344 12.105469 20.164062 12.109375 20.425781 C 12.078125 20.4375 12.042969 20.449219 12.007812 20.460938 C 11.972656 20.285156 11.964844 20.113281 11.964844 19.933594 C 11.964844 19.917969 11.964844 19.90625 11.964844 19.890625 C 11.964844 19.675781 11.984375 19.472656 12.039062 19.265625 C 12.046875 19.238281 12.054688 19.210938 12.0625 19.1875 C 12.070312 19.15625 12.070312 19.15625 12.078125 19.125 C 11.757812 19.613281 11.570312 20.066406 11.550781 20.65625 C 11.542969 20.65625 11.539062 20.65625 11.53125 20.65625 C 11.511719 19.929688 11.703125 19.28125 12.214844 18.738281 C 12.351562 18.59375 12.496094 18.457031 12.65625 18.335938 C 12.679688 18.3125 12.679688 18.3125 12.707031 18.292969 C 13.679688 17.519531 14.980469 17.230469 16.1875 17.074219 C 16.222656 17.070312 16.257812 17.0625 16.292969 17.058594 C 17.308594 16.929688 18.355469 17.023438 19.371094 17.113281 C 19.390625 17.117188 19.390625 17.117188 19.410156 17.117188 C 19.542969 17.128906 19.671875 17.140625 19.804688 17.152344 C 20.160156 17.1875 20.160156 17.1875 20.515625 17.191406 C 20.503906 17.183594 20.496094 17.171875 20.488281 17.164062 C 20.378906 17.046875 20.292969 16.917969 20.226562 16.769531 C 20.1875 16.6875 20.132812 16.621094 20.070312 16.550781 C 19.824219 16.261719 19.769531 15.945312 19.792969 15.574219 C 19.808594 15.492188 19.828125 15.421875 19.863281 15.34375 C 19.871094 15.324219 19.878906 15.304688 19.890625 15.285156 C 19.980469 15.089844 20.109375 14.925781 20.25 14.765625 C 20.261719 14.769531 20.273438 14.777344 20.285156 14.78125 C 20.277344 14.792969 20.277344 14.792969 20.265625 14.804688 C 20.007812 15.132812 19.878906 15.488281 19.914062 15.90625 C 19.964844 16.195312 20.15625 16.445312 20.382812 16.617188 C 20.613281 16.777344 20.84375 16.75 21.105469 16.703125 C 21.203125 16.683594 21.296875 16.667969 21.390625 16.648438 C 21.339844 16.703125 21.28125 16.726562 21.207031 16.753906 C 21.195312 16.757812 21.183594 16.761719 21.167969 16.765625 C 20.929688 16.851562 20.648438 16.890625 20.40625 16.789062 C 20.425781 16.8125 20.441406 16.835938 20.457031 16.859375 C 20.472656 16.882812 20.484375 16.90625 20.5 16.925781 C 20.535156 16.980469 20.5625 17.011719 20.628906 17.027344 C 20.851562 17.035156 21.074219 16.953125 21.277344 16.871094 C 21.371094 16.839844 21.371094 16.839844 21.429688 16.859375 C 21.195312 16.984375 20.941406 17.101562 20.671875 17.101562 C 20.6875 17.121094 20.699219 17.136719 20.714844 17.15625 C 20.722656 17.164062 20.730469 17.175781 20.738281 17.183594 C 20.773438 17.222656 20.792969 17.226562 20.851562 17.230469 C 20.925781 17.226562 20.988281 17.207031 21.058594 17.183594 C 21.078125 17.175781 21.078125 17.175781 21.097656 17.167969 C 21.257812 17.109375 21.414062 17.027344 21.566406 16.941406 C 21.621094 16.910156 21.621094 16.910156 21.65625 16.910156 C 21.65625 16.921875 21.65625 16.933594 21.65625 16.945312 C 21.621094 16.972656 21.589844 16.992188 21.554688 17.015625 C 21.542969 17.023438 21.53125 17.03125 21.519531 17.039062 C 21.429688 17.09375 21.332031 17.144531 21.234375 17.191406 C 21.222656 17.195312 21.207031 17.203125 21.191406 17.210938 C 21.113281 17.246094 21.039062 17.277344 20.953125 17.296875 C 20.980469 17.328125 21.003906 17.347656 21.039062 17.367188 C 21.171875 17.363281 21.265625 17.324219 21.378906 17.261719 C 21.394531 17.253906 21.410156 17.246094 21.429688 17.234375 C 21.542969 17.171875 21.648438 17.105469 21.753906 17.027344 C 21.792969 17 21.820312 16.988281 21.867188 16.980469 C 21.804688 17.066406 21.726562 17.125 21.644531 17.1875 C 21.628906 17.199219 21.613281 17.210938 21.601562 17.21875 C 21.566406 17.246094 21.53125 17.269531 21.5 17.296875 C 21.523438 17.292969 21.546875 17.292969 21.574219 17.289062 C 21.59375 17.289062 21.59375 17.289062 21.617188 17.285156 C 21.746094 17.265625 21.855469 17.167969 21.960938 17.09375 C 22.039062 17.03125 22.039062 17.03125 22.078125 17.03125 C 22.050781 17.109375 21.996094 17.152344 21.9375 17.210938 C 22.046875 17.199219 22.113281 17.152344 22.203125 17.09375 C 22.253906 17.070312 22.253906 17.070312 22.296875 17.074219 C 22.304688 17.078125 22.316406 17.082031 22.324219 17.085938 C 22.296875 17.121094 22.296875 17.121094 22.273438 17.15625 C 22.285156 17.152344 22.296875 17.144531 22.308594 17.140625 C 22.441406 17.082031 22.570312 17.050781 22.710938 17.027344 C 22.878906 16.996094 23.042969 16.945312 23.203125 16.890625 C 23.1875 16.890625 23.1875 16.890625 23.167969 16.890625 C 22.648438 16.882812 22.183594 16.800781 21.710938 16.578125 C 21.785156 16.550781 21.839844 16.585938 21.910156 16.613281 C 22.433594 16.816406 22.984375 16.800781 23.535156 16.777344 C 23.871094 16.761719 24.203125 16.769531 24.539062 16.769531 C 23.585938 16.4375 23.585938 16.4375 22.589844 16.324219 C 22.570312 16.324219 22.570312 16.324219 22.550781 16.324219 C 22.363281 16.328125 22.179688 16.335938 21.992188 16.367188 C 21.90625 16.375 21.839844 16.378906 21.769531 16.324219 C 21.722656 16.273438 21.710938 16.257812 21.703125 16.195312 C 21.710938 16.121094 21.746094 16.082031 21.796875 16.03125 C 21.851562 15.996094 21.851562 15.996094 21.910156 15.96875 C 21.921875 15.960938 21.933594 15.957031 21.941406 15.953125 C 22.050781 15.902344 22.160156 15.867188 22.273438 15.835938 C 22.261719 15.832031 22.253906 15.824219 22.242188 15.820312 C 22.144531 15.75 22.0625 15.675781 22.035156 15.554688 C 22.03125 15.464844 22.054688 15.414062 22.113281 15.34375 C 22.203125 15.261719 22.261719 15.234375 22.386719 15.234375 C 22.472656 15.246094 22.519531 15.292969 22.574219 15.355469 C 22.625 15.429688 22.628906 15.488281 22.625 15.574219 C 22.601562 15.632812 22.578125 15.691406 22.554688 15.75 C 22.570312 15.753906 22.585938 15.761719 22.605469 15.765625 C 22.460938 15.828125 22.3125 15.878906 22.160156 15.925781 C 21.945312 15.992188 21.945312 15.992188 21.78125 16.136719 C 21.769531 16.191406 21.769531 16.191406 21.78125 16.242188 C 21.8125 16.285156 21.8125 16.285156 21.878906 16.285156 C 21.957031 16.28125 22.003906 16.257812 22.070312 16.21875 C 22.082031 16.210938 22.09375 16.203125 22.101562 16.199219 C 22.15625 16.164062 22.207031 16.132812 22.261719 16.097656 C 22.890625 15.667969 23.746094 15.578125 24.484375 15.503906 C 24.464844 15.503906 24.445312 15.503906 24.425781 15.5 C 23.808594 15.476562 23.203125 15.445312 22.609375 15.261719 C 22.390625 15.195312 22.171875 15.152344 21.945312 15.132812 C 21.816406 15.117188 21.695312 15.082031 21.570312 15.046875 C 21.515625 15.035156 21.464844 15.023438 21.410156 15.011719 C 21.410156 15 21.410156 14.988281 21.410156 14.976562 C 21.445312 14.945312 21.480469 14.917969 21.515625 14.890625 C 21.519531 14.878906 21.527344 14.867188 21.53125 14.851562 C 21.515625 14.859375 21.496094 14.867188 21.476562 14.871094 C 21.261719 14.945312 21.132812 14.957031 20.914062 14.894531 C 20.742188 14.847656 20.566406 14.816406 20.390625 14.78125 C 20.449219 14.625 20.585938 14.535156 20.726562 14.449219 C 20.566406 14.507812 20.433594 14.574219 20.304688 14.683594 C 20.195312 14.769531 20.085938 14.757812 19.953125 14.75 C 19.929688 14.746094 19.90625 14.746094 19.882812 14.746094 C 19.824219 14.742188 19.765625 14.738281 19.710938 14.734375 C 19.503906 14.71875 19.296875 14.707031 19.089844 14.710938 C 19.035156 15.054688 18.996094 15.386719 18.984375 15.734375 C 18.894531 15.644531 18.824219 15.570312 18.816406 15.445312 C 18.820312 15.347656 18.871094 15.289062 18.929688 15.222656 C 18.925781 15.214844 18.917969 15.207031 18.910156 15.195312 C 18.894531 15.179688 18.894531 15.179688 18.878906 15.164062 C 18.871094 15.152344 18.859375 15.140625 18.851562 15.128906 C 18.804688 15.070312 18.804688 15.027344 18.804688 14.957031 C 18.804688 14.9375 18.804688 14.917969 18.804688 14.898438 C 18.808594 14.824219 18.832031 14.777344 18.859375 14.710938 C 18.78125 14.71875 18.699219 14.722656 18.617188 14.726562 C 18.589844 14.730469 18.5625 14.730469 18.535156 14.730469 C 18.390625 14.738281 18.25 14.75 18.109375 14.761719 C 18.0625 14.765625 18.015625 14.765625 17.96875 14.765625 C 17.957031 14.765625 17.945312 14.765625 17.929688 14.765625 C 17.917969 14.765625 17.90625 14.765625 17.894531 14.765625 C 17.878906 14.988281 17.875 15.210938 17.875 15.4375 C 17.875 15.464844 17.875 15.496094 17.875 15.527344 C 17.875 15.601562 17.875 15.675781 17.875 15.75 C 17.777344 15.648438 17.726562 15.597656 17.714844 15.453125 C 17.714844 15.375 17.742188 15.335938 17.789062 15.273438 C 17.777344 15.265625 17.777344 15.265625 17.765625 15.253906 C 17.757812 15.246094 17.746094 15.234375 17.738281 15.226562 C 17.726562 15.214844 17.71875 15.207031 17.707031 15.199219 C 17.65625 15.136719 17.664062 15.070312 17.664062 14.996094 C 17.664062 14.972656 17.664062 14.953125 17.660156 14.929688 C 17.664062 14.875 17.675781 14.847656 17.703125 14.800781 C 17.683594 14.804688 17.667969 14.808594 17.648438 14.808594 C 17.535156 14.832031 17.421875 14.851562 17.308594 14.875 C 17.257812 14.882812 17.210938 14.890625 17.164062 14.902344 C 17.136719 14.90625 17.113281 14.910156 17.085938 14.914062 C 17.050781 14.921875 17.015625 14.929688 16.976562 14.9375 C 16.945312 14.941406 16.945312 14.941406 16.914062 14.949219 C 16.871094 14.957031 16.828125 14.964844 16.789062 14.976562 C 16.785156 15.289062 16.78125 15.597656 16.820312 15.90625 C 16.835938 15.90625 16.851562 15.90625 16.863281 15.90625 C 17.757812 15.894531 18.859375 16.042969 19.671875 16.453125 C 19.675781 16.464844 19.679688 16.476562 19.6875 16.488281 C 19.671875 16.488281 19.671875 16.488281 19.65625 16.492188 C 19.386719 16.527344 19.132812 16.628906 18.890625 16.742188 C 18.875 16.75 18.859375 16.757812 18.84375 16.765625 C 18.742188 16.816406 18.664062 16.867188 18.582031 16.941406 C 18.546875 16.960938 18.546875 16.960938 18.492188 16.949219 C 18.476562 16.945312 18.457031 16.9375 18.4375 16.929688 C 18.425781 16.921875 18.410156 16.914062 18.394531 16.910156 C 18.371094 16.898438 18.371094 16.898438 18.347656 16.886719 C 17.714844 16.613281 17.089844 16.445312 16.414062 16.332031 C 16.355469 16.320312 16.296875 16.308594 16.242188 16.296875 C 16.242188 16.285156 16.242188 16.273438 16.242188 16.257812 C 16.203125 16.257812 16.160156 16.257812 16.117188 16.257812 C 16.117188 16.25 16.117188 16.238281 16.117188 16.226562 C 16.15625 16.222656 16.195312 16.222656 16.230469 16.222656 C 16.253906 16.222656 16.273438 16.222656 16.292969 16.222656 C 16.347656 16.226562 16.347656 16.226562 16.382812 16.242188 C 16.378906 16.21875 16.371094 16.195312 16.367188 16.171875 C 16.378906 16.175781 16.394531 16.179688 16.414062 16.183594 C 16.46875 16.1875 16.503906 16.1875 16.558594 16.171875 C 16.558594 16.148438 16.558594 16.125 16.558594 16.101562 C 16.570312 16.101562 16.582031 16.101562 16.59375 16.101562 C 16.597656 16.089844 16.605469 16.078125 16.609375 16.066406 C 16.628906 16.03125 16.628906 16.03125 16.664062 16.015625 C 16.667969 15.996094 16.675781 15.980469 16.679688 15.960938 C 16.59375 15.957031 16.507812 15.949219 16.417969 15.945312 C 16.417969 15.9375 16.417969 15.933594 16.417969 15.925781 C 16.601562 15.910156 16.601562 15.910156 16.789062 15.890625 C 16.746094 15.851562 16.707031 15.808594 16.664062 15.765625 C 16.625 15.691406 16.617188 15.640625 16.628906 15.554688 C 16.65625 15.511719 16.65625 15.511719 16.679688 15.484375 C 16.652344 15.417969 16.609375 15.378906 16.558594 15.328125 C 16.535156 15.28125 16.539062 15.25 16.539062 15.199219 C 16.539062 15.179688 16.539062 15.164062 16.539062 15.144531 C 16.539062 15.101562 16.539062 15.101562 16.558594 15.046875 C 16.441406 15.058594 16.335938 15.085938 16.222656 15.117188 C 16.207031 15.125 16.1875 15.128906 16.167969 15.132812 C 15.972656 15.191406 15.78125 15.257812 15.59375 15.328125 C 15.585938 15.398438 15.582031 15.46875 15.574219 15.539062 C 15.558594 15.523438 15.539062 15.503906 15.523438 15.484375 C 15.523438 15.507812 15.523438 15.507812 15.527344 15.53125 C 15.539062 15.597656 15.546875 15.664062 15.554688 15.734375 C 15.546875 15.734375 15.535156 15.734375 15.523438 15.734375 C 15.523438 15.714844 15.523438 15.699219 15.523438 15.679688 C 15.503906 15.683594 15.503906 15.683594 15.488281 15.691406 C 15.476562 15.691406 15.464844 15.695312 15.453125 15.695312 C 15.390625 15.636719 15.394531 15.570312 15.394531 15.484375 C 15.398438 15.449219 15.40625 15.417969 15.414062 15.382812 C 15.378906 15.394531 15.339844 15.410156 15.300781 15.425781 C 15.269531 15.4375 15.238281 15.453125 15.203125 15.464844 C 15.101562 15.507812 15.101562 15.507812 15 15.550781 C 14.898438 15.597656 14.824219 15.621094 14.710938 15.609375 C 14.710938 15.574219 14.710938 15.539062 14.710938 15.503906 C 14.679688 15.582031 14.679688 15.582031 14.660156 15.664062 C 14.664062 15.671875 14.671875 15.683594 14.679688 15.695312 C 14.613281 15.710938 14.566406 15.71875 14.5 15.695312 C 14.5 15.707031 14.5 15.71875 14.5 15.734375 C 14.484375 15.734375 14.46875 15.734375 14.449219 15.734375 C 14.449219 15.75 14.449219 15.765625 14.449219 15.785156 C 14.207031 15.90625 14.207031 15.90625 13.957031 16.03125 C 13.96875 16.171875 13.96875 16.171875 14.003906 16.300781 C 14.007812 16.316406 14.011719 16.335938 14.019531 16.351562 C 14.027344 16.375 14.027344 16.375 14.035156 16.398438 C 14.046875 16.429688 14.058594 16.460938 14.070312 16.496094 C 14.074219 16.507812 14.078125 16.523438 14.085938 16.535156 C 14.097656 16.574219 14.105469 16.609375 14.117188 16.648438 C 14.046875 16.625 13.996094 16.601562 13.957031 16.539062 C 13.957031 16.488281 13.964844 16.4375 13.976562 16.382812 C 13.960938 16.382812 13.949219 16.378906 13.933594 16.378906 C 13.886719 16.367188 13.886719 16.367188 13.855469 16.339844 C 13.824219 16.273438 13.8125 16.207031 13.796875 16.136719 C 13.667969 16.214844 13.539062 16.289062 13.414062 16.371094 C 13.398438 16.382812 13.378906 16.394531 13.363281 16.40625 C 13.320312 16.433594 13.320312 16.433594 13.304688 16.488281 C 13.316406 16.527344 13.316406 16.527344 13.328125 16.570312 C 13.335938 16.585938 13.339844 16.601562 13.347656 16.621094 C 13.351562 16.636719 13.359375 16.652344 13.363281 16.671875 C 13.371094 16.6875 13.375 16.703125 13.378906 16.722656 C 13.40625 16.800781 13.4375 16.875 13.484375 16.945312 C 13.484375 16.957031 13.484375 16.96875 13.484375 16.980469 C 13.359375 16.945312 13.359375 16.945312 13.324219 16.890625 C 13.320312 16.839844 13.316406 16.800781 13.34375 16.75 C 13.328125 16.75 13.316406 16.75 13.300781 16.75 C 13.238281 16.730469 13.21875 16.703125 13.183594 16.648438 C 13.175781 16.613281 13.171875 16.578125 13.164062 16.539062 C 13.132812 16.566406 13.097656 16.59375 13.0625 16.621094 C 13.050781 16.628906 13.039062 16.636719 13.03125 16.644531 C 12.957031 16.703125 12.882812 16.757812 12.8125 16.816406 C 12.785156 16.835938 12.753906 16.855469 12.726562 16.875 C 12.761719 17.035156 12.839844 17.171875 12.921875 17.3125 C 12.925781 17.324219 12.929688 17.335938 12.9375 17.351562 C 12.871094 17.339844 12.824219 17.328125 12.78125 17.28125 C 12.773438 17.214844 12.773438 17.214844 12.78125 17.15625 C 12.761719 17.152344 12.746094 17.148438 12.730469 17.144531 C 12.652344 17.113281 12.644531 17.074219 12.601562 17 C 12.59375 17.007812 12.585938 17.015625 12.574219 17.027344 C 12.53125 17.070312 12.488281 17.113281 12.449219 17.15625 C 12.433594 17.171875 12.417969 17.1875 12.402344 17.203125 C 12.386719 17.214844 12.375 17.230469 12.359375 17.246094 C 12.347656 17.257812 12.332031 17.273438 12.320312 17.285156 C 12.289062 17.3125 12.289062 17.3125 12.25 17.3125 C 12.296875 17.449219 12.351562 17.5625 12.429688 17.683594 C 12.433594 17.695312 12.4375 17.707031 12.445312 17.71875 C 12.386719 17.710938 12.355469 17.699219 12.304688 17.664062 C 12.300781 17.609375 12.300781 17.609375 12.304688 17.5625 C 12.277344 17.554688 12.246094 17.550781 12.21875 17.542969 C 12.207031 17.507812 12.195312 17.472656 12.179688 17.4375 C 12.171875 17.4375 12.160156 17.4375 12.148438 17.4375 C 12.140625 17.449219 12.136719 17.457031 12.132812 17.46875 C 12.109375 17.511719 12.078125 17.550781 12.046875 17.589844 C 11.632812 18.101562 11.324219 18.765625 11.316406 19.433594 C 11.316406 19.449219 11.316406 19.460938 11.316406 19.476562 C 11.308594 19.902344 11.308594 19.902344 11.390625 20.320312 C 11.394531 20.332031 11.398438 20.347656 11.402344 20.359375 C 11.449219 20.503906 11.503906 20.640625 11.570312 20.777344 C 11.574219 20.789062 11.578125 20.800781 11.585938 20.8125 C 11.578125 20.824219 11.574219 20.835938 11.566406 20.847656 C 11.308594 20.421875 11.160156 19.9375 11.144531 19.441406 C 11.144531 19.425781 11.144531 19.414062 11.144531 19.398438 C 11.128906 19.019531 11.171875 18.640625 11.285156 18.28125 C 11.289062 18.265625 11.292969 18.253906 11.296875 18.238281 C 11.460938 17.710938 11.738281 17.242188 12.09375 16.820312 C 12.109375 16.804688 12.125 16.785156 12.140625 16.769531 C 12.257812 16.625 12.382812 16.492188 12.511719 16.363281 C 12.542969 16.332031 12.574219 16.300781 12.605469 16.273438 C 12.722656 16.15625 12.84375 16.046875 12.972656 15.945312 C 12.992188 15.925781 13.011719 15.910156 13.03125 15.894531 C 14.1875 14.886719 15.753906 14.1875 17.226562 13.796875 C 17.265625 13.789062 17.304688 13.777344 17.347656 13.765625 C 17.703125 13.671875 18.0625 13.597656 18.425781 13.539062 C 18.445312 13.535156 18.46875 13.535156 18.492188 13.53125 C 18.84375 13.476562 19.195312 13.457031 19.554688 13.457031 Z M 19.554688 13.457031 "/>
<path style=" stroke:none;fill-rule:nonzero;fill:rgb(4.313726%,55.686277%,67.843139%);fill-opacity:1;" d="M 14.675781 19.929688 C 14.691406 19.929688 14.703125 19.929688 14.71875 19.929688 C 15.527344 19.933594 16.339844 20.085938 17.109375 20.324219 C 17.183594 20.347656 17.257812 20.367188 17.328125 20.386719 C 17.441406 20.417969 17.554688 20.453125 17.664062 20.484375 C 17.945312 20.570312 18.226562 20.648438 18.511719 20.714844 C 18.5625 20.722656 18.609375 20.734375 18.660156 20.746094 C 18.851562 20.789062 19.039062 20.828125 19.234375 20.859375 C 19.253906 20.863281 19.273438 20.867188 19.292969 20.871094 C 19.625 20.925781 19.957031 20.941406 20.292969 20.941406 C 20.324219 20.941406 20.324219 20.941406 20.351562 20.941406 C 20.65625 20.941406 20.949219 20.925781 21.25 20.867188 C 21.265625 20.863281 21.28125 20.859375 21.296875 20.855469 C 21.386719 20.839844 21.476562 20.820312 21.570312 20.796875 C 21.585938 20.789062 21.605469 20.785156 21.621094 20.78125 C 21.894531 20.707031 22.15625 20.617188 22.414062 20.496094 C 22.425781 20.488281 22.441406 20.484375 22.457031 20.476562 C 22.519531 20.445312 22.585938 20.414062 22.648438 20.382812 C 22.699219 20.359375 22.75 20.339844 22.796875 20.320312 C 22.738281 20.402344 22.664062 20.464844 22.585938 20.53125 C 22.574219 20.542969 22.558594 20.558594 22.542969 20.570312 C 21.847656 21.167969 20.972656 21.492188 20.074219 21.601562 C 20.0625 21.605469 20.050781 21.605469 20.039062 21.609375 C 19.9375 21.621094 19.839844 21.625 19.738281 21.625 C 19.71875 21.625 19.703125 21.625 19.6875 21.625 C 19.648438 21.625 19.613281 21.625 19.578125 21.625 C 19.527344 21.625 19.472656 21.625 19.417969 21.625 C 19.191406 21.625 18.964844 21.613281 18.738281 21.585938 C 18.726562 21.585938 18.714844 21.582031 18.703125 21.582031 C 18.628906 21.574219 18.550781 21.5625 18.476562 21.550781 C 18.464844 21.550781 18.457031 21.546875 18.445312 21.546875 C 18.226562 21.511719 18.015625 21.460938 17.804688 21.410156 C 17.789062 21.40625 17.773438 21.402344 17.757812 21.398438 C 17.601562 21.359375 17.449219 21.316406 17.296875 21.269531 C 17.191406 21.234375 17.082031 21.207031 16.972656 21.175781 C 16.875 21.148438 16.777344 21.121094 16.683594 21.085938 C 16.53125 21.035156 16.378906 20.996094 16.222656 20.957031 C 16.175781 20.941406 16.128906 20.929688 16.082031 20.917969 C 15.882812 20.867188 15.683594 20.820312 15.484375 20.777344 C 15.46875 20.773438 15.453125 20.769531 15.4375 20.765625 C 14.183594 20.484375 12.835938 20.625 11.738281 21.316406 C 11.671875 21.359375 11.609375 21.402344 11.546875 21.445312 C 11.527344 21.460938 11.503906 21.476562 11.484375 21.492188 C 11.378906 21.566406 11.273438 21.640625 11.179688 21.726562 C 11.175781 21.714844 11.167969 21.703125 11.164062 21.691406 C 11.210938 21.625 11.261719 21.558594 11.3125 21.492188 C 11.335938 21.46875 11.355469 21.441406 11.375 21.414062 C 11.546875 21.195312 11.75 21 11.96875 20.828125 C 11.984375 20.816406 12 20.804688 12.019531 20.792969 C 12.257812 20.605469 12.519531 20.445312 12.796875 20.320312 C 12.808594 20.3125 12.824219 20.308594 12.835938 20.300781 C 13.191406 20.144531 13.558594 20.035156 13.945312 19.972656 C 13.957031 19.972656 13.972656 19.96875 13.984375 19.96875 C 14.214844 19.933594 14.441406 19.929688 14.675781 19.929688 Z M 14.675781 19.929688 "/>
<path style=" stroke:none;fill-rule:nonzero;fill:rgb(7.450981%,14.117648%,34.901962%);fill-opacity:1;" d="M 14.691406 21 C 14.707031 21 14.726562 21 14.742188 21 C 15.007812 21 15.261719 21.015625 15.523438 21.078125 C 15.542969 21.082031 15.542969 21.082031 15.5625 21.085938 C 15.886719 21.15625 16.207031 21.265625 16.488281 21.445312 C 16.488281 21.449219 16.488281 21.457031 16.488281 21.460938 C 16.394531 21.457031 16.296875 21.449219 16.203125 21.4375 C 15.101562 21.300781 13.894531 21.648438 13.015625 22.328125 C 12.996094 22.34375 12.976562 22.359375 12.953125 22.375 C 12.941406 22.386719 12.925781 22.398438 12.910156 22.410156 C 12.8125 22.492188 12.734375 22.59375 12.65625 22.695312 C 12.644531 22.707031 12.636719 22.71875 12.625 22.730469 C 12.195312 23.246094 12.003906 23.980469 11.882812 24.625 C 11.878906 24.648438 11.875 24.667969 11.871094 24.6875 C 11.839844 24.871094 11.828125 25.050781 11.828125 25.234375 C 11.828125 25.261719 11.828125 25.261719 11.828125 25.289062 C 11.824219 25.332031 11.824219 25.371094 11.824219 25.410156 C 11.824219 25.46875 11.824219 25.527344 11.824219 25.585938 C 11.824219 25.785156 11.828125 25.976562 11.867188 26.171875 C 11.878906 26.238281 11.882812 26.285156 11.867188 26.351562 C 11.65625 25.953125 11.5 25.511719 11.445312 25.066406 C 11.441406 25.046875 11.4375 25.027344 11.433594 25.007812 C 11.402344 24.792969 11.402344 24.578125 11.402344 24.363281 C 11.402344 24.304688 11.402344 24.242188 11.398438 24.179688 C 11.398438 23.902344 11.425781 23.636719 11.476562 23.359375 C 11.480469 23.347656 11.484375 23.335938 11.484375 23.324219 C 11.5 23.253906 11.515625 23.183594 11.53125 23.117188 C 11.535156 23.097656 11.539062 23.082031 11.542969 23.066406 C 11.597656 22.84375 11.65625 22.628906 11.726562 22.410156 C 11.734375 22.382812 11.734375 22.382812 11.746094 22.355469 C 11.789062 22.214844 11.789062 22.214844 11.808594 22.15625 C 11.875 21.953125 11.929688 21.726562 11.867188 21.515625 C 11.929688 21.460938 11.929688 21.460938 11.96875 21.460938 C 11.996094 21.492188 12.019531 21.519531 12.042969 21.550781 C 12.226562 21.777344 12.445312 21.941406 12.691406 22.09375 C 12.660156 22.007812 12.628906 21.917969 12.597656 21.828125 C 12.585938 21.796875 12.578125 21.765625 12.566406 21.734375 C 12.550781 21.691406 12.535156 21.648438 12.519531 21.601562 C 12.515625 21.589844 12.511719 21.578125 12.503906 21.5625 C 12.476562 21.480469 12.445312 21.402344 12.40625 21.320312 C 12.390625 21.289062 12.390625 21.289062 12.390625 21.234375 C 12.488281 21.179688 12.488281 21.179688 12.53125 21.1875 C 12.570312 21.199219 12.605469 21.210938 12.644531 21.226562 C 12.964844 21.332031 13.335938 21.203125 13.65625 21.128906 C 13.746094 21.105469 13.835938 21.085938 13.929688 21.070312 C 13.949219 21.066406 13.949219 21.066406 13.964844 21.0625 C 14.003906 21.054688 14.042969 21.046875 14.078125 21.039062 C 14.097656 21.039062 14.113281 21.035156 14.132812 21.03125 C 14.316406 21 14.503906 21 14.691406 21 Z M 14.691406 21 "/>
<path style=" stroke:none;fill-rule:nonzero;fill:rgb(19.215687%,78.823531%,85.490197%);fill-opacity:1;" d="M 16.3125 19.195312 C 16.347656 19.199219 16.347656 19.199219 16.382812 19.203125 C 16.929688 19.277344 17.46875 19.410156 17.996094 19.578125 C 18.128906 19.617188 18.265625 19.65625 18.398438 19.691406 C 18.433594 19.703125 18.464844 19.714844 18.5 19.722656 C 19.085938 19.894531 19.695312 20.042969 20.304688 20.09375 C 20.316406 20.09375 20.328125 20.09375 20.34375 20.09375 C 20.71875 20.128906 21.105469 20.125 21.480469 20.074219 C 21.5 20.070312 21.519531 20.070312 21.539062 20.066406 C 21.890625 20.015625 22.234375 19.945312 22.5625 19.8125 C 22.625 19.792969 22.625 19.792969 22.675781 19.8125 C 21.480469 20.515625 20.183594 20.707031 18.828125 20.425781 C 18.804688 20.421875 18.785156 20.417969 18.761719 20.414062 C 18.332031 20.324219 17.914062 20.207031 17.496094 20.066406 C 17.347656 20.015625 17.195312 19.972656 17.039062 19.929688 C 17 19.917969 16.957031 19.902344 16.914062 19.890625 C 15.683594 19.519531 14.152344 19.324219 12.960938 19.941406 C 12.945312 19.949219 12.925781 19.957031 12.910156 19.96875 C 12.894531 19.972656 12.882812 19.980469 12.867188 19.984375 C 12.855469 19.980469 12.84375 19.976562 12.832031 19.96875 C 13.464844 19.5625 14.074219 19.292969 14.824219 19.183594 C 14.851562 19.179688 14.882812 19.175781 14.910156 19.171875 C 15.371094 19.097656 15.855469 19.132812 16.3125 19.195312 Z M 16.3125 19.195312 "/>
<path style=" stroke:none;fill-rule:nonzero;fill:rgb(9.411765%,16.470589%,36.078432%);fill-opacity:1;" d="M 16.578125 15.03125 C 16.574219 15.039062 16.570312 15.046875 16.566406 15.058594 C 16.546875 15.152344 16.542969 15.253906 16.578125 15.34375 C 16.617188 15.386719 16.65625 15.417969 16.699219 15.453125 C 16.679688 15.484375 16.664062 15.523438 16.648438 15.554688 C 16.636719 15.695312 16.679688 15.757812 16.765625 15.863281 C 16.777344 15.878906 16.792969 15.890625 16.804688 15.90625 C 16.769531 15.914062 16.734375 15.917969 16.695312 15.921875 C 16.664062 15.921875 16.664062 15.921875 16.648438 15.945312 C 16.65625 15.949219 16.667969 15.953125 16.679688 15.960938 C 16.671875 16.027344 16.644531 16.058594 16.59375 16.101562 C 16.582031 16.101562 16.570312 16.101562 16.558594 16.101562 C 16.558594 16.125 16.558594 16.148438 16.558594 16.171875 C 16.449219 16.214844 16.449219 16.214844 16.382812 16.1875 C 16.382812 16.207031 16.382812 16.222656 16.382812 16.242188 C 16.292969 16.242188 16.207031 16.242188 16.117188 16.226562 C 16.117188 16.234375 16.117188 16.246094 16.117188 16.257812 C 16.160156 16.257812 16.199219 16.257812 16.242188 16.257812 C 16.242188 16.269531 16.242188 16.28125 16.242188 16.296875 C 16.222656 16.292969 16.207031 16.292969 16.1875 16.292969 C 15.921875 16.273438 15.65625 16.273438 15.386719 16.277344 C 15.324219 16.277344 15.261719 16.277344 15.199219 16.277344 C 15.078125 16.277344 14.957031 16.277344 14.835938 16.277344 C 14.847656 16.324219 14.859375 16.371094 14.871094 16.417969 C 14.789062 16.390625 14.789062 16.390625 14.757812 16.355469 C 14.710938 16.3125 14.671875 16.320312 14.613281 16.324219 C 14.527344 16.332031 14.445312 16.355469 14.359375 16.375 C 14.296875 16.390625 14.234375 16.40625 14.167969 16.398438 C 14.210938 16.355469 14.25 16.347656 14.308594 16.328125 C 14.339844 16.316406 14.339844 16.316406 14.375 16.304688 C 14.40625 16.292969 14.441406 16.28125 14.472656 16.273438 C 14.601562 16.238281 14.601562 16.238281 14.699219 16.15625 C 14.710938 16.117188 14.710938 16.117188 14.710938 16.066406 C 14.699219 16.066406 14.699219 16.066406 14.683594 16.0625 C 14.625 16.042969 14.605469 16.007812 14.570312 15.960938 C 14.550781 15.890625 14.550781 15.839844 14.554688 15.765625 C 14.558594 15.757812 14.566406 15.746094 14.570312 15.734375 C 14.53125 15.75 14.492188 15.765625 14.449219 15.785156 C 14.449219 15.769531 14.449219 15.75 14.449219 15.734375 C 14.464844 15.734375 14.484375 15.734375 14.5 15.734375 C 14.5 15.722656 14.5 15.710938 14.5 15.695312 C 14.558594 15.695312 14.617188 15.695312 14.679688 15.695312 C 14.660156 15.679688 14.644531 15.664062 14.625 15.644531 C 14.636719 15.644531 14.648438 15.644531 14.660156 15.644531 C 14.65625 15.625 14.65625 15.625 14.65625 15.605469 C 14.660156 15.542969 14.683594 15.527344 14.730469 15.484375 C 14.730469 15.519531 14.730469 15.554688 14.730469 15.59375 C 14.859375 15.605469 14.957031 15.554688 15.074219 15.507812 C 15.308594 15.40625 15.308594 15.40625 15.414062 15.382812 C 15.414062 15.394531 15.414062 15.410156 15.414062 15.425781 C 15.414062 15.441406 15.414062 15.460938 15.414062 15.480469 C 15.414062 15.5 15.414062 15.519531 15.414062 15.535156 C 15.417969 15.59375 15.429688 15.628906 15.453125 15.679688 C 15.472656 15.679688 15.496094 15.679688 15.523438 15.679688 C 15.523438 15.695312 15.523438 15.714844 15.523438 15.734375 C 15.53125 15.734375 15.542969 15.734375 15.554688 15.734375 C 15.550781 15.71875 15.546875 15.707031 15.542969 15.691406 C 15.539062 15.675781 15.535156 15.65625 15.527344 15.640625 C 15.523438 15.621094 15.519531 15.605469 15.515625 15.585938 C 15.503906 15.539062 15.503906 15.539062 15.523438 15.484375 C 15.511719 15.480469 15.5 15.476562 15.484375 15.46875 C 15.503906 15.464844 15.519531 15.457031 15.539062 15.453125 C 15.546875 15.46875 15.546875 15.46875 15.554688 15.484375 C 15.5625 15.433594 15.566406 15.382812 15.574219 15.328125 C 15.714844 15.265625 15.855469 15.214844 16 15.167969 C 16.019531 15.164062 16.039062 15.15625 16.058594 15.152344 C 16.460938 15.023438 16.460938 15.023438 16.578125 15.03125 Z M 16.578125 15.03125 "/>
<path style=" stroke:none;fill-rule:nonzero;fill:rgb(8.627451%,15.686275%,36.078432%);fill-opacity:1;" d="M 15.894531 24.0625 C 15.910156 24.0625 15.929688 24.0625 15.945312 24.0625 C 15.972656 24.0625 15.972656 24.0625 16 24.0625 C 16.019531 24.0625 16.039062 24.0625 16.058594 24.0625 C 16.085938 24.0625 16.085938 24.0625 16.117188 24.0625 C 16.164062 24.0625 16.210938 24.0625 16.257812 24.0625 C 16.265625 24.074219 16.269531 24.085938 16.273438 24.09375 C 16.382812 24.363281 16.5 24.628906 16.617188 24.894531 C 16.839844 25.390625 16.839844 25.390625 16.90625 25.550781 C 16.917969 25.574219 16.925781 25.597656 16.9375 25.617188 C 16.949219 25.648438 16.964844 25.679688 16.976562 25.710938 C 16.984375 25.726562 16.992188 25.746094 17 25.761719 C 17.015625 25.804688 17.015625 25.804688 17.015625 25.855469 C 16.882812 25.855469 16.75 25.855469 16.609375 25.855469 C 16.59375 25.820312 16.578125 25.78125 16.558594 25.738281 C 16.554688 25.726562 16.550781 25.714844 16.542969 25.703125 C 16.515625 25.640625 16.5 25.589844 16.488281 25.523438 C 16.199219 25.527344 15.90625 25.535156 15.609375 25.539062 C 15.5625 25.652344 15.515625 25.761719 15.46875 25.875 C 15.335938 25.875 15.203125 25.875 15.0625 25.875 C 15.078125 25.785156 15.101562 25.714844 15.140625 25.632812 C 15.148438 25.617188 15.152344 25.605469 15.160156 25.589844 C 15.179688 25.546875 15.199219 25.503906 15.21875 25.460938 C 15.230469 25.429688 15.246094 25.398438 15.257812 25.371094 C 15.285156 25.308594 15.3125 25.25 15.34375 25.1875 C 15.394531 25.070312 15.445312 24.953125 15.5 24.835938 C 15.519531 24.796875 15.535156 24.757812 15.554688 24.714844 C 15.589844 24.636719 15.621094 24.5625 15.65625 24.484375 C 15.679688 24.4375 15.699219 24.386719 15.722656 24.339844 C 15.730469 24.316406 15.742188 24.296875 15.753906 24.273438 C 15.765625 24.242188 15.78125 24.207031 15.792969 24.175781 C 15.800781 24.160156 15.808594 24.140625 15.820312 24.121094 C 15.847656 24.066406 15.847656 24.066406 15.894531 24.0625 Z M 15.894531 24.0625 "/>
<path style=" stroke:none;fill-rule:nonzero;fill:rgb(7.450981%,14.117648%,34.509805%);fill-opacity:1;" d="M 24.101562 24.082031 C 24.226562 24.082031 24.355469 24.082031 24.484375 24.082031 C 24.484375 24.320312 24.484375 24.558594 24.484375 24.804688 C 24.753906 24.804688 25.019531 24.804688 25.296875 24.804688 C 25.296875 24.566406 25.296875 24.328125 25.296875 24.082031 C 25.421875 24.082031 25.550781 24.082031 25.679688 24.082031 C 25.679688 24.667969 25.679688 25.253906 25.679688 25.859375 C 25.554688 25.859375 25.425781 25.859375 25.296875 25.859375 C 25.296875 25.625 25.296875 25.394531 25.296875 25.15625 C 25.027344 25.15625 24.761719 25.15625 24.484375 25.15625 C 24.484375 25.386719 24.484375 25.617188 24.484375 25.859375 C 24.359375 25.859375 24.230469 25.859375 24.101562 25.859375 C 24.101562 25.273438 24.101562 24.6875 24.101562 24.082031 Z M 24.101562 24.082031 "/>
<path style=" stroke:none;fill-rule:nonzero;fill:rgb(8.235294%,14.509805%,35.294119%);fill-opacity:1;" d="M 23.679688 24.222656 C 23.667969 24.304688 23.632812 24.375 23.597656 24.449219 C 23.589844 24.460938 23.585938 24.472656 23.578125 24.484375 C 23.566406 24.515625 23.550781 24.542969 23.539062 24.574219 C 23.476562 24.550781 23.417969 24.523438 23.359375 24.496094 C 23.203125 24.425781 23.039062 24.394531 22.867188 24.414062 C 22.804688 24.449219 22.804688 24.449219 22.765625 24.503906 C 22.753906 24.554688 22.753906 24.554688 22.765625 24.609375 C 22.824219 24.683594 22.878906 24.714844 22.972656 24.742188 C 22.996094 24.75 23.019531 24.753906 23.042969 24.761719 C 23.054688 24.765625 23.066406 24.769531 23.078125 24.773438 C 23.550781 24.917969 23.550781 24.917969 23.695312 25.160156 C 23.742188 25.320312 23.714844 25.460938 23.640625 25.609375 C 23.542969 25.765625 23.375 25.835938 23.203125 25.875 C 23.136719 25.882812 23.074219 25.882812 23.007812 25.882812 C 22.980469 25.882812 22.980469 25.882812 22.953125 25.882812 C 22.679688 25.878906 22.433594 25.777344 22.21875 25.609375 C 22.234375 25.539062 22.269531 25.476562 22.308594 25.414062 C 22.3125 25.402344 22.320312 25.390625 22.328125 25.378906 C 22.34375 25.351562 22.359375 25.324219 22.375 25.296875 C 22.441406 25.304688 22.484375 25.335938 22.539062 25.371094 C 22.726562 25.492188 22.90625 25.542969 23.132812 25.523438 C 23.210938 25.496094 23.210938 25.496094 23.257812 25.4375 C 23.265625 25.375 23.265625 25.375 23.257812 25.3125 C 23.195312 25.238281 23.140625 25.210938 23.050781 25.183594 C 23.027344 25.175781 23.003906 25.167969 22.980469 25.160156 C 22.953125 25.152344 22.929688 25.144531 22.90625 25.136719 C 22.476562 25.007812 22.476562 25.007812 22.347656 24.785156 C 22.296875 24.660156 22.304688 24.492188 22.355469 24.367188 C 22.441406 24.210938 22.566406 24.128906 22.726562 24.0625 C 23.046875 23.96875 23.394531 24.078125 23.679688 24.222656 Z M 23.679688 24.222656 "/>
<path style=" stroke:none;fill-rule:nonzero;fill:rgb(8.235294%,14.509805%,34.901962%);fill-opacity:1;" d="M 14.15625 24.042969 C 14.179688 24.042969 14.179688 24.042969 14.207031 24.042969 C 14.441406 24.046875 14.679688 24.09375 14.871094 24.242188 C 14.847656 24.320312 14.816406 24.390625 14.78125 24.464844 C 14.773438 24.488281 14.761719 24.507812 14.753906 24.527344 C 14.746094 24.542969 14.738281 24.558594 14.730469 24.574219 C 14.636719 24.542969 14.546875 24.507812 14.460938 24.472656 C 14.335938 24.421875 14.214844 24.402344 14.078125 24.414062 C 14.027344 24.441406 13.996094 24.464844 13.957031 24.503906 C 13.960938 24.570312 13.960938 24.613281 14.003906 24.664062 C 14.054688 24.703125 14.097656 24.71875 14.15625 24.738281 C 14.175781 24.746094 14.175781 24.746094 14.191406 24.75 C 14.226562 24.761719 14.257812 24.773438 14.292969 24.785156 C 14.679688 24.910156 14.679688 24.910156 14.78125 25.03125 C 14.792969 25.042969 14.800781 25.050781 14.8125 25.0625 C 14.886719 25.183594 14.882812 25.316406 14.871094 25.453125 C 14.839844 25.582031 14.78125 25.6875 14.671875 25.761719 C 14.445312 25.898438 14.183594 25.925781 13.925781 25.867188 C 13.742188 25.820312 13.558594 25.734375 13.414062 25.609375 C 13.4375 25.535156 13.476562 25.472656 13.519531 25.402344 C 13.527344 25.394531 13.53125 25.382812 13.539062 25.371094 C 13.554688 25.347656 13.570312 25.320312 13.585938 25.296875 C 13.640625 25.320312 13.683594 25.347656 13.730469 25.378906 C 13.898438 25.496094 14.089844 25.539062 14.289062 25.523438 C 14.363281 25.503906 14.40625 25.484375 14.449219 25.417969 C 14.449219 25.355469 14.449219 25.355469 14.429688 25.296875 C 14.371094 25.234375 14.3125 25.207031 14.230469 25.183594 C 14.195312 25.171875 14.195312 25.171875 14.164062 25.160156 C 14.128906 25.148438 14.09375 25.140625 14.058594 25.128906 C 13.859375 25.0625 13.660156 25 13.554688 24.804688 C 13.5 24.671875 13.492188 24.519531 13.546875 24.382812 C 13.628906 24.222656 13.757812 24.113281 13.929688 24.058594 C 14.003906 24.039062 14.078125 24.039062 14.15625 24.042969 Z M 14.15625 24.042969 "/>
<path style=" stroke:none;fill-rule:nonzero;fill:rgb(7.450981%,14.117648%,34.901962%);fill-opacity:1;" d="M 19.773438 24.0625 C 20.214844 24.0625 20.65625 24.0625 21.109375 24.0625 C 21.109375 24.179688 21.109375 24.296875 21.109375 24.414062 C 20.804688 24.414062 20.496094 24.414062 20.179688 24.414062 C 20.179688 24.550781 20.179688 24.683594 20.179688 24.820312 C 20.457031 24.820312 20.738281 24.820312 21.023438 24.820312 C 21.023438 24.941406 21.023438 25.0625 21.023438 25.1875 C 20.746094 25.1875 20.464844 25.1875 20.179688 25.1875 C 20.179688 25.414062 20.179688 25.640625 20.179688 25.875 C 20.046875 25.875 19.914062 25.875 19.773438 25.875 C 19.773438 25.277344 19.773438 24.679688 19.773438 24.0625 Z M 19.773438 24.0625 "/>
<path style=" stroke:none;fill-rule:nonzero;fill:rgb(10.588235%,16.862746%,36.862746%);fill-opacity:1;" d="M 18.210938 24.0625 C 18.34375 24.0625 18.476562 24.0625 18.617188 24.0625 C 18.617188 24.535156 18.617188 25.003906 18.617188 25.488281 C 18.894531 25.488281 19.171875 25.488281 19.460938 25.488281 C 19.460938 25.617188 19.460938 25.742188 19.460938 25.875 C 19.046875 25.875 18.636719 25.875 18.210938 25.875 C 18.210938 25.277344 18.210938 24.679688 18.210938 24.0625 Z M 18.210938 24.0625 "/>
<path style=" stroke:none;fill-rule:nonzero;fill:rgb(97.647059%,98.039216%,98.431373%);fill-opacity:1;" d="M 15.382812 26.734375 C 15.496094 26.828125 15.585938 26.9375 15.609375 27.085938 C 15.625 27.253906 15.597656 27.40625 15.492188 27.542969 C 15.394531 27.648438 15.257812 27.710938 15.113281 27.722656 C 14.96875 27.726562 14.84375 27.691406 14.730469 27.597656 C 14.597656 27.46875 14.550781 27.363281 14.542969 27.179688 C 14.546875 27.046875 14.574219 26.945312 14.660156 26.84375 C 14.851562 26.652344 15.140625 26.582031 15.382812 26.734375 Z M 15.382812 26.734375 "/>
<path style=" stroke:none;fill-rule:nonzero;fill:rgb(98.039216%,98.039216%,98.431373%);fill-opacity:1;" d="M 21.890625 26.65625 C 21.910156 26.65625 21.910156 26.65625 21.929688 26.65625 C 22.085938 26.664062 22.183594 26.71875 22.296875 26.824219 C 22.410156 26.945312 22.4375 27.066406 22.433594 27.230469 C 22.421875 27.355469 22.375 27.480469 22.289062 27.570312 C 22.140625 27.6875 21.996094 27.722656 21.8125 27.710938 C 21.675781 27.699219 21.585938 27.640625 21.492188 27.539062 C 21.382812 27.410156 21.363281 27.28125 21.367188 27.117188 C 21.386719 26.960938 21.464844 26.839844 21.582031 26.742188 C 21.683594 26.679688 21.773438 26.65625 21.890625 26.65625 Z M 21.890625 26.65625 "/>
<path style=" stroke:none;fill-rule:nonzero;fill:rgb(97.647059%,98.431373%,98.823529%);fill-opacity:1;" d="M 16.578125 15.03125 C 16.570312 15.042969 16.570312 15.042969 16.566406 15.058594 C 16.546875 15.152344 16.542969 15.253906 16.578125 15.34375 C 16.617188 15.386719 16.65625 15.417969 16.699219 15.453125 C 16.679688 15.484375 16.664062 15.523438 16.648438 15.554688 C 16.636719 15.695312 16.675781 15.753906 16.761719 15.859375 C 16.777344 15.875 16.789062 15.890625 16.804688 15.90625 C 16.796875 15.910156 16.785156 15.910156 16.773438 15.910156 C 16.671875 15.914062 16.570312 15.917969 16.46875 15.921875 C 16.433594 15.925781 16.394531 15.925781 16.355469 15.925781 C 16.300781 15.929688 16.246094 15.929688 16.191406 15.933594 C 16.175781 15.933594 16.160156 15.933594 16.140625 15.9375 C 16.042969 15.941406 15.945312 15.949219 15.847656 15.957031 C 15.78125 15.960938 15.710938 15.960938 15.644531 15.960938 C 15.601562 15.742188 15.585938 15.535156 15.59375 15.3125 C 15.675781 15.28125 15.761719 15.253906 15.847656 15.222656 C 15.875 15.214844 15.90625 15.203125 15.933594 15.195312 C 16.441406 15.023438 16.441406 15.023438 16.578125 15.03125 Z M 16.578125 15.03125 "/>
<path style=" stroke:none;fill-rule:nonzero;fill:rgb(10.980392%,17.254902%,36.862746%);fill-opacity:1;" d="M 17.3125 24.0625 C 17.449219 24.0625 17.582031 24.0625 17.71875 24.0625 C 17.71875 24.660156 17.71875 25.257812 17.71875 25.875 C 17.585938 25.875 17.453125 25.875 17.3125 25.875 C 17.3125 25.277344 17.3125 24.679688 17.3125 24.0625 Z M 17.3125 24.0625 "/>
<path style=" stroke:none;fill-rule:nonzero;fill:rgb(9.019608%,16.078432%,36.078432%);fill-opacity:1;" d="M 21.460938 24.0625 C 21.597656 24.0625 21.730469 24.0625 21.867188 24.0625 C 21.867188 24.65625 21.867188 25.246094 21.867188 25.859375 C 21.734375 25.859375 21.601562 25.859375 21.460938 25.859375 C 21.460938 25.265625 21.460938 24.675781 21.460938 24.0625 Z M 21.460938 24.0625 "/>
<path style=" stroke:none;fill-rule:nonzero;fill:rgb(18.039216%,21.960784%,34.901962%);fill-opacity:1;" d="M 22.429688 15.242188 C 22.507812 15.277344 22.554688 15.328125 22.605469 15.398438 C 22.648438 15.53125 22.605469 15.628906 22.554688 15.75 C 22.570312 15.753906 22.585938 15.761719 22.605469 15.765625 C 22.460938 15.828125 22.3125 15.878906 22.160156 15.925781 C 21.945312 15.992188 21.945312 15.992188 21.78125 16.136719 C 21.769531 16.191406 21.769531 16.191406 21.78125 16.242188 C 21.8125 16.28125 21.8125 16.28125 21.875 16.285156 C 21.980469 16.285156 22.074219 16.222656 22.164062 16.171875 C 22.164062 16.183594 22.164062 16.195312 22.164062 16.207031 C 22.265625 16.171875 22.355469 16.128906 22.445312 16.078125 C 22.917969 15.820312 23.484375 15.742188 24.007812 15.65625 C 24.027344 15.652344 24.042969 15.648438 24.0625 15.648438 C 24.164062 15.628906 24.261719 15.625 24.363281 15.625 C 24.304688 15.667969 24.257812 15.675781 24.191406 15.691406 C 23.589844 15.832031 23.589844 15.832031 23.09375 16.164062 C 23.058594 16.207031 23.027344 16.238281 22.972656 16.25 C 22.929688 16.253906 22.886719 16.253906 22.84375 16.253906 C 22.832031 16.253906 22.816406 16.253906 22.796875 16.253906 C 22.75 16.25 22.699219 16.25 22.652344 16.25 C 22.617188 16.25 22.585938 16.246094 22.550781 16.246094 C 22.46875 16.246094 22.386719 16.246094 22.304688 16.242188 C 22.359375 16.277344 22.375 16.28125 22.433594 16.285156 C 22.449219 16.285156 22.460938 16.285156 22.476562 16.285156 C 22.5 16.289062 22.5 16.289062 22.519531 16.289062 C 22.535156 16.289062 22.550781 16.289062 22.566406 16.289062 C 22.601562 16.292969 22.640625 16.292969 22.675781 16.296875 C 22.675781 16.300781 22.675781 16.304688 22.675781 16.3125 C 22.648438 16.3125 22.648438 16.3125 22.625 16.316406 C 22.5625 16.320312 22.496094 16.324219 22.433594 16.328125 C 22.40625 16.328125 22.378906 16.328125 22.351562 16.332031 C 22.3125 16.332031 22.273438 16.335938 22.234375 16.339844 C 22.214844 16.339844 22.214844 16.339844 22.195312 16.339844 C 22.125 16.34375 22.058594 16.351562 21.992188 16.367188 C 21.859375 16.378906 21.859375 16.378906 21.800781 16.347656 C 21.742188 16.300781 21.710938 16.265625 21.703125 16.195312 C 21.710938 16.121094 21.746094 16.082031 21.796875 16.03125 C 21.851562 15.996094 21.851562 15.996094 21.910156 15.96875 C 21.921875 15.960938 21.933594 15.957031 21.941406 15.953125 C 22.050781 15.902344 22.160156 15.867188 22.273438 15.835938 C 22.261719 15.832031 22.253906 15.824219 22.242188 15.820312 C 22.144531 15.75 22.0625 15.675781 22.035156 15.554688 C 22.03125 15.464844 22.054688 15.414062 22.113281 15.34375 C 22.214844 15.25 22.289062 15.226562 22.429688 15.242188 Z M 22.429688 15.242188 "/>
<path style=" stroke:none;fill-rule:nonzero;fill:rgb(93.725491%,94.509804%,95.686275%);fill-opacity:1;" d="M 21.269531 14.992188 C 21.269531 15.046875 21.269531 15.046875 21.25 15.074219 C 21.238281 15.082031 21.226562 15.09375 21.21875 15.101562 C 21.027344 15.3125 20.917969 15.574219 20.929688 15.855469 C 20.941406 16.011719 20.996094 16.132812 21.105469 16.246094 C 21.171875 16.296875 21.242188 16.3125 21.320312 16.3125 C 21.359375 16.304688 21.359375 16.304688 21.390625 16.296875 C 21.398438 16.3125 21.402344 16.328125 21.410156 16.347656 C 21.460938 16.382812 21.480469 16.386719 21.535156 16.394531 C 21.558594 16.394531 21.582031 16.398438 21.601562 16.398438 C 21.609375 16.417969 21.613281 16.433594 21.621094 16.453125 C 21.558594 16.46875 21.558594 16.46875 21.5 16.488281 C 21.488281 16.523438 21.488281 16.523438 21.480469 16.558594 C 21.492188 16.558594 21.503906 16.558594 21.515625 16.558594 C 21.515625 16.570312 21.515625 16.582031 21.515625 16.59375 C 21.5 16.59375 21.480469 16.59375 21.460938 16.59375 C 21.453125 16.632812 21.441406 16.675781 21.429688 16.71875 C 21.417969 16.71875 21.40625 16.71875 21.390625 16.71875 C 21.40625 16.769531 21.40625 16.769531 21.4375 16.792969 C 21.472656 16.832031 21.464844 16.859375 21.460938 16.910156 C 21.429688 16.925781 21.394531 16.9375 21.363281 16.953125 C 21.34375 16.960938 21.324219 16.96875 21.304688 16.976562 C 21.25 17 21.25 17 21.210938 17.007812 C 21.179688 17.011719 21.179688 17.011719 21.15625 17.042969 C 21.128906 17.070312 21.128906 17.070312 21.074219 17.070312 C 21.046875 17.070312 21.046875 17.070312 21.023438 17.070312 C 21.015625 17.101562 21.015625 17.101562 21.007812 17.140625 C 20.960938 17.140625 20.914062 17.140625 20.867188 17.140625 C 20.859375 17.148438 20.855469 17.160156 20.847656 17.171875 C 20.945312 17.191406 20.945312 17.191406 21.039062 17.171875 C 21.039062 17.183594 21.039062 17.195312 21.039062 17.210938 C 20.957031 17.238281 20.882812 17.257812 20.796875 17.242188 C 20.75 17.214844 20.707031 17.179688 20.671875 17.140625 C 20.671875 17.128906 20.671875 17.117188 20.671875 17.101562 C 20.691406 17.101562 20.710938 17.097656 20.730469 17.09375 C 20.914062 17.054688 21.082031 17.003906 21.25 16.929688 C 21.269531 16.921875 21.285156 16.914062 21.304688 16.90625 C 21.339844 16.890625 21.375 16.875 21.410156 16.859375 C 21.316406 16.882812 21.226562 16.914062 21.136719 16.945312 C 21.023438 16.980469 20.914062 17.019531 20.796875 17.03125 C 20.777344 17.035156 20.761719 17.039062 20.742188 17.042969 C 20.65625 17.050781 20.605469 17.050781 20.535156 16.996094 C 20.472656 16.925781 20.421875 16.859375 20.390625 16.769531 C 20.398438 16.773438 20.410156 16.777344 20.417969 16.78125 C 20.730469 16.894531 21.042969 16.792969 21.339844 16.679688 C 21.324219 16.679688 21.304688 16.679688 21.289062 16.679688 C 21.242188 16.675781 21.203125 16.667969 21.164062 16.648438 C 21.152344 16.601562 21.152344 16.601562 21.148438 16.558594 C 21.179688 16.550781 21.179688 16.550781 21.21875 16.539062 C 21.21875 16.523438 21.21875 16.507812 21.21875 16.488281 C 21.199219 16.488281 21.183594 16.488281 21.164062 16.488281 C 21.148438 16.488281 21.128906 16.488281 21.109375 16.488281 C 21.109375 16.476562 21.109375 16.464844 21.109375 16.453125 C 21.09375 16.445312 21.09375 16.445312 21.078125 16.4375 C 21.085938 16.414062 21.097656 16.390625 21.109375 16.367188 C 21.101562 16.367188 21.089844 16.367188 21.078125 16.367188 C 20.902344 16.1875 20.835938 16.03125 20.839844 15.789062 C 20.84375 15.65625 20.875 15.550781 20.9375 15.433594 C 20.945312 15.417969 20.953125 15.398438 20.960938 15.382812 C 21.035156 15.230469 21.148438 15.113281 21.269531 14.992188 Z M 21.269531 14.992188 "/>
<path style=" stroke:none;fill-rule:nonzero;fill:rgb(97.647059%,98.039216%,98.431373%);fill-opacity:1;" d="M 15.414062 15.382812 C 15.414062 15.394531 15.414062 15.410156 15.414062 15.425781 C 15.414062 15.441406 15.414062 15.460938 15.414062 15.480469 C 15.414062 15.5 15.414062 15.519531 15.414062 15.535156 C 15.417969 15.605469 15.429688 15.65625 15.476562 15.707031 C 15.488281 15.714844 15.496094 15.722656 15.507812 15.730469 C 15.523438 15.742188 15.539062 15.753906 15.554688 15.765625 C 15.546875 15.785156 15.546875 15.785156 15.539062 15.804688 C 15.523438 15.855469 15.523438 15.875 15.527344 15.929688 C 15.53125 15.953125 15.535156 15.972656 15.539062 15.996094 C 15.453125 16.015625 15.363281 16.035156 15.277344 16.054688 C 15.246094 16.0625 15.214844 16.070312 15.1875 16.074219 C 15.144531 16.085938 15.101562 16.09375 15.058594 16.105469 C 15.042969 16.105469 15.03125 16.109375 15.015625 16.113281 C 14.9375 16.128906 14.863281 16.144531 14.78125 16.15625 C 14.769531 16.097656 14.757812 16.042969 14.75 15.988281 C 14.746094 15.972656 14.742188 15.957031 14.738281 15.941406 C 14.71875 15.84375 14.710938 15.757812 14.710938 15.664062 C 14.835938 15.597656 14.964844 15.542969 15.097656 15.492188 C 15.132812 15.476562 15.167969 15.464844 15.203125 15.449219 C 15.21875 15.445312 15.234375 15.4375 15.25 15.433594 C 15.28125 15.421875 15.308594 15.410156 15.339844 15.394531 C 15.382812 15.382812 15.382812 15.382812 15.414062 15.382812 Z M 15.414062 15.382812 "/>
<path style=" stroke:none;fill-rule:nonzero;fill:rgb(8.235294%,14.117648%,34.117648%);fill-opacity:1;" d="M 15.894531 24.0625 C 15.910156 24.0625 15.929688 24.0625 15.945312 24.0625 C 15.972656 24.0625 15.972656 24.0625 16 24.0625 C 16.019531 24.0625 16.039062 24.0625 16.058594 24.0625 C 16.085938 24.0625 16.085938 24.0625 16.117188 24.0625 C 16.164062 24.0625 16.210938 24.0625 16.257812 24.0625 C 16.289062 24.132812 16.320312 24.199219 16.347656 24.269531 C 16.355469 24.285156 16.367188 24.304688 16.375 24.324219 C 16.449219 24.5 16.449219 24.5 16.417969 24.609375 C 16.367188 24.632812 16.332031 24.644531 16.277344 24.644531 C 16.277344 24.699219 16.28125 24.734375 16.292969 24.785156 C 16.292969 24.796875 16.292969 24.808594 16.292969 24.820312 C 16.3125 24.828125 16.3125 24.828125 16.328125 24.835938 C 16.324219 24.855469 16.320312 24.871094 16.3125 24.890625 C 16.3125 24.878906 16.3125 24.867188 16.3125 24.855469 C 16.300781 24.855469 16.289062 24.855469 16.277344 24.855469 C 16.300781 24.890625 16.300781 24.890625 16.328125 24.925781 C 16.347656 24.925781 16.363281 24.925781 16.382812 24.925781 C 16.382812 24.949219 16.382812 24.972656 16.382812 24.996094 C 16.371094 24.996094 16.359375 24.996094 16.347656 24.996094 C 16.347656 25.007812 16.347656 25.019531 16.347656 25.03125 C 16.335938 25.03125 16.324219 25.03125 16.3125 25.03125 C 16.320312 25.066406 16.320312 25.066406 16.328125 25.101562 C 16.277344 25.082031 16.277344 25.082031 16.257812 25.046875 C 16.25 25.03125 16.242188 25.015625 16.234375 25 C 16.226562 24.980469 16.21875 24.964844 16.210938 24.945312 C 16.203125 24.917969 16.203125 24.917969 16.1875 24.886719 C 16.179688 24.859375 16.179688 24.859375 16.167969 24.832031 C 16.152344 24.796875 16.136719 24.761719 16.121094 24.726562 C 16.097656 24.671875 16.074219 24.613281 16.046875 24.554688 C 15.996094 24.652344 15.996094 24.652344 15.941406 24.75 C 15.871094 24.695312 15.871094 24.695312 15.855469 24.644531 C 15.867188 24.644531 15.878906 24.644531 15.890625 24.644531 C 15.855469 24.601562 15.855469 24.601562 15.800781 24.605469 C 15.785156 24.609375 15.765625 24.609375 15.75 24.609375 C 15.746094 24.585938 15.738281 24.5625 15.730469 24.539062 C 15.75 24.539062 15.765625 24.539062 15.785156 24.539062 C 15.785156 24.527344 15.785156 24.515625 15.785156 24.503906 C 15.75 24.503906 15.714844 24.503906 15.679688 24.503906 C 15.691406 24.40625 15.726562 24.324219 15.765625 24.234375 C 15.777344 24.214844 15.777344 24.214844 15.789062 24.191406 C 15.84375 24.066406 15.84375 24.066406 15.894531 24.0625 Z M 15.894531 24.0625 "/>
<path style=" stroke:none;fill-rule:nonzero;fill:rgb(12.54902%,16.470589%,34.117648%);fill-opacity:1;" d="M 23.117188 26.664062 C 23.238281 26.664062 23.238281 26.664062 23.285156 26.710938 C 23.296875 26.730469 23.3125 26.75 23.324219 26.769531 C 23.339844 26.789062 23.355469 26.8125 23.371094 26.832031 C 23.382812 26.847656 23.382812 26.847656 23.394531 26.863281 C 23.421875 26.90625 23.453125 26.945312 23.484375 26.984375 C 23.550781 27.066406 23.617188 27.152344 23.683594 27.238281 C 23.742188 27.3125 23.796875 27.382812 23.851562 27.457031 C 23.859375 27.195312 23.863281 26.933594 23.871094 26.664062 C 23.910156 26.664062 23.953125 26.664062 23.992188 26.664062 C 23.992188 27.007812 23.992188 27.351562 23.992188 27.703125 C 23.871094 27.703125 23.871094 27.703125 23.832031 27.667969 C 23.820312 27.652344 23.8125 27.632812 23.800781 27.617188 C 23.785156 27.597656 23.773438 27.578125 23.757812 27.558594 C 23.753906 27.546875 23.746094 27.539062 23.738281 27.527344 C 23.691406 27.460938 23.640625 27.402344 23.59375 27.339844 C 23.476562 27.191406 23.367188 27.042969 23.257812 26.894531 C 23.25 27.167969 23.246094 27.441406 23.238281 27.71875 C 23.199219 27.71875 23.15625 27.71875 23.117188 27.71875 C 23.117188 27.371094 23.117188 27.023438 23.117188 26.664062 Z M 23.117188 26.664062 "/>
<path style=" stroke:none;fill-rule:nonzero;fill:rgb(63.137257%,65.098041%,70.19608%);fill-opacity:1;" d="M 24.363281 15.625 C 24.304688 15.667969 24.257812 15.675781 24.191406 15.691406 C 23.574219 15.839844 23.574219 15.839844 23.070312 16.191406 C 23.023438 16.238281 22.992188 16.25 22.921875 16.253906 C 22.890625 16.253906 22.855469 16.253906 22.824219 16.253906 C 22.796875 16.253906 22.796875 16.253906 22.769531 16.253906 C 22.710938 16.25 22.65625 16.25 22.597656 16.25 C 22.558594 16.25 22.523438 16.246094 22.484375 16.246094 C 22.390625 16.246094 22.296875 16.246094 22.203125 16.242188 C 22.269531 16.171875 22.339844 16.132812 22.425781 16.085938 C 22.4375 16.078125 22.453125 16.070312 22.46875 16.0625 C 22.609375 15.992188 22.753906 15.9375 22.90625 15.890625 C 22.921875 15.886719 22.921875 15.886719 22.941406 15.878906 C 23.289062 15.777344 23.652344 15.714844 24.007812 15.65625 C 24.027344 15.652344 24.042969 15.648438 24.0625 15.648438 C 24.164062 15.628906 24.261719 15.625 24.363281 15.625 Z M 24.363281 15.625 "/>
<path style=" stroke:none;fill-rule:nonzero;fill:rgb(10.980392%,15.294118%,33.333334%);fill-opacity:1;" d="M 21.890625 26.65625 C 21.910156 26.65625 21.910156 26.65625 21.929688 26.65625 C 22.085938 26.664062 22.183594 26.71875 22.296875 26.824219 C 22.410156 26.945312 22.4375 27.066406 22.433594 27.230469 C 22.421875 27.355469 22.375 27.480469 22.289062 27.570312 C 22.140625 27.6875 21.996094 27.722656 21.8125 27.710938 C 21.675781 27.699219 21.585938 27.640625 21.492188 27.539062 C 21.382812 27.410156 21.363281 27.28125 21.367188 27.117188 C 21.386719 26.960938 21.464844 26.839844 21.582031 26.742188 C 21.683594 26.679688 21.773438 26.65625 21.890625 26.65625 Z M 21.535156 26.953125 C 21.46875 27.050781 21.488281 27.203125 21.5 27.316406 C 21.527344 27.425781 21.597656 27.5 21.691406 27.5625 C 21.808594 27.625 21.910156 27.632812 22.035156 27.59375 C 22.164062 27.546875 22.234375 27.472656 22.289062 27.351562 C 22.328125 27.234375 22.328125 27.117188 22.289062 27 C 22.226562 26.890625 22.148438 26.816406 22.027344 26.777344 C 21.808594 26.738281 21.675781 26.785156 21.535156 26.953125 Z M 21.535156 26.953125 "/>
<path style=" stroke:none;fill-rule:nonzero;fill:rgb(10.588235%,14.901961%,32.941177%);fill-opacity:1;" d="M 15.382812 26.734375 C 15.496094 26.828125 15.585938 26.9375 15.609375 27.085938 C 15.625 27.253906 15.597656 27.40625 15.492188 27.542969 C 15.394531 27.648438 15.257812 27.710938 15.113281 27.722656 C 14.96875 27.726562 14.84375 27.691406 14.730469 27.597656 C 14.597656 27.46875 14.550781 27.363281 14.542969 27.179688 C 14.546875 27.046875 14.574219 26.945312 14.660156 26.84375 C 14.851562 26.652344 15.140625 26.582031 15.382812 26.734375 Z M 14.75 26.910156 C 14.664062 27.03125 14.644531 27.136719 14.660156 27.28125 C 14.695312 27.410156 14.785156 27.519531 14.902344 27.589844 C 15.003906 27.632812 15.113281 27.632812 15.21875 27.601562 C 15.335938 27.546875 15.421875 27.476562 15.472656 27.355469 C 15.503906 27.230469 15.511719 27.085938 15.453125 26.964844 C 15.394531 26.875 15.308594 26.8125 15.207031 26.777344 C 15.019531 26.746094 14.882812 26.765625 14.75 26.910156 Z M 14.75 26.910156 "/>
<path style=" stroke:none;fill-rule:nonzero;fill:rgb(10.196079%,14.509805%,32.156864%);fill-opacity:1;" d="M 25.347656 26.714844 C 25.382812 26.734375 25.382812 26.734375 25.398438 26.769531 C 25.398438 26.804688 25.398438 26.804688 25.382812 26.859375 C 25.371094 26.855469 25.363281 26.851562 25.351562 26.847656 C 25.335938 26.84375 25.324219 26.839844 25.308594 26.835938 C 25.292969 26.828125 25.28125 26.824219 25.265625 26.820312 C 25.160156 26.785156 25.054688 26.777344 24.945312 26.789062 C 24.890625 26.820312 24.867188 26.839844 24.835938 26.894531 C 24.832031 26.957031 24.828125 26.988281 24.867188 27.035156 C 24.914062 27.078125 24.957031 27.089844 25.015625 27.105469 C 25.039062 27.113281 25.058594 27.117188 25.078125 27.125 C 25.097656 27.128906 25.117188 27.136719 25.136719 27.140625 C 25.253906 27.175781 25.351562 27.207031 25.433594 27.304688 C 25.46875 27.390625 25.464844 27.460938 25.433594 27.546875 C 25.371094 27.640625 25.296875 27.699219 25.1875 27.71875 C 25.003906 27.742188 24.808594 27.699219 24.664062 27.578125 C 24.679688 27.527344 24.679688 27.527344 24.695312 27.476562 C 24.769531 27.503906 24.835938 27.53125 24.90625 27.5625 C 25 27.605469 25.089844 27.609375 25.1875 27.597656 C 25.246094 27.574219 25.285156 27.546875 25.3125 27.492188 C 25.320312 27.433594 25.320312 27.398438 25.285156 27.347656 C 25.210938 27.292969 25.125 27.269531 25.035156 27.242188 C 25.023438 27.238281 25.015625 27.234375 25 27.230469 C 24.980469 27.226562 24.957031 27.21875 24.933594 27.210938 C 24.84375 27.183594 24.777344 27.148438 24.726562 27.070312 C 24.695312 26.980469 24.703125 26.886719 24.742188 26.800781 C 24.90625 26.621094 25.132812 26.636719 25.347656 26.714844 Z M 25.347656 26.714844 "/>
<path style=" stroke:none;fill-rule:nonzero;fill:rgb(10.196079%,14.509805%,32.549021%);fill-opacity:1;" d="M 13.839844 26.714844 C 13.867188 26.734375 13.867188 26.734375 13.886719 26.789062 C 13.871094 26.828125 13.871094 26.828125 13.851562 26.859375 C 13.824219 26.851562 13.800781 26.84375 13.773438 26.835938 C 13.753906 26.828125 13.753906 26.828125 13.730469 26.820312 C 13.695312 26.804688 13.695312 26.804688 13.65625 26.789062 C 13.625 26.785156 13.589844 26.785156 13.554688 26.785156 C 13.539062 26.785156 13.519531 26.785156 13.5 26.785156 C 13.441406 26.789062 13.410156 26.804688 13.359375 26.84375 C 13.316406 26.890625 13.316406 26.890625 13.328125 26.957031 C 13.34375 27.019531 13.347656 27.03125 13.394531 27.070312 C 13.4375 27.089844 13.4375 27.089844 13.488281 27.101562 C 13.515625 27.109375 13.515625 27.109375 13.542969 27.117188 C 13.582031 27.128906 13.621094 27.140625 13.660156 27.152344 C 13.777344 27.1875 13.863281 27.222656 13.921875 27.335938 C 13.941406 27.417969 13.933594 27.5 13.902344 27.578125 C 13.828125 27.660156 13.75 27.699219 13.644531 27.707031 C 13.453125 27.710938 13.304688 27.703125 13.148438 27.578125 C 13.164062 27.527344 13.164062 27.527344 13.183594 27.476562 C 13.25 27.5 13.316406 27.53125 13.378906 27.5625 C 13.472656 27.609375 13.574219 27.609375 13.675781 27.597656 C 13.730469 27.574219 13.769531 27.546875 13.796875 27.492188 C 13.804688 27.441406 13.804688 27.441406 13.796875 27.386719 C 13.75 27.328125 13.707031 27.304688 13.636719 27.28125 C 13.617188 27.277344 13.601562 27.269531 13.582031 27.265625 C 13.566406 27.257812 13.546875 27.253906 13.527344 27.246094 C 13.277344 27.167969 13.277344 27.167969 13.214844 27.070312 C 13.183594 26.980469 13.1875 26.886719 13.230469 26.800781 C 13.386719 26.625 13.632812 26.625 13.839844 26.714844 Z M 13.839844 26.714844 "/>
<path style=" stroke:none;fill-rule:nonzero;fill:rgb(9.411765%,13.725491%,31.764707%);fill-opacity:1;" d="M 17.578125 26.664062 C 17.617188 26.664062 17.660156 26.664062 17.703125 26.664062 C 17.703125 26.6875 17.703125 26.707031 17.703125 26.726562 C 17.703125 26.804688 17.703125 26.882812 17.703125 26.957031 C 17.707031 26.992188 17.707031 27.023438 17.707031 27.058594 C 17.707031 27.105469 17.707031 27.152344 17.707031 27.203125 C 17.707031 27.214844 17.707031 27.230469 17.707031 27.246094 C 17.710938 27.371094 17.746094 27.464844 17.832031 27.554688 C 17.945312 27.601562 18.066406 27.59375 18.1875 27.5625 C 18.261719 27.5 18.296875 27.410156 18.316406 27.316406 C 18.320312 27.269531 18.320312 27.21875 18.320312 27.171875 C 18.324219 27.15625 18.324219 27.144531 18.324219 27.128906 C 18.324219 27.085938 18.324219 27.039062 18.328125 26.996094 C 18.328125 26.964844 18.328125 26.933594 18.328125 26.90625 C 18.332031 26.832031 18.332031 26.757812 18.335938 26.683594 C 18.367188 26.683594 18.402344 26.683594 18.4375 26.683594 C 18.441406 26.777344 18.441406 26.871094 18.441406 26.96875 C 18.445312 27 18.445312 27.03125 18.445312 27.0625 C 18.453125 27.441406 18.453125 27.441406 18.328125 27.59375 C 18.3125 27.609375 18.296875 27.621094 18.28125 27.632812 C 18.265625 27.644531 18.25 27.660156 18.230469 27.671875 C 18.121094 27.734375 17.949219 27.722656 17.832031 27.691406 C 17.726562 27.644531 17.660156 27.5625 17.617188 27.457031 C 17.582031 27.355469 17.574219 27.257812 17.578125 27.152344 C 17.578125 27.136719 17.578125 27.125 17.578125 27.109375 C 17.578125 27.066406 17.578125 27.019531 17.578125 26.976562 C 17.578125 26.945312 17.578125 26.917969 17.578125 26.886719 C 17.578125 26.8125 17.578125 26.738281 17.578125 26.664062 Z M 17.578125 26.664062 "/>
<path style=" stroke:none;fill-rule:nonzero;fill:rgb(6.27451%,10.980392%,29.411766%);fill-opacity:1;" d="M 19.070312 26.664062 C 19.34375 26.664062 19.617188 26.664062 19.898438 26.664062 C 19.898438 26.699219 19.898438 26.734375 19.898438 26.773438 C 19.894531 26.777344 19.886719 26.78125 19.882812 26.789062 C 19.769531 26.789062 19.660156 26.789062 19.546875 26.789062 C 19.546875 27.089844 19.546875 27.390625 19.546875 27.703125 C 19.507812 27.703125 19.464844 27.703125 19.421875 27.703125 C 19.421875 27.402344 19.421875 27.101562 19.421875 26.789062 C 19.308594 26.789062 19.191406 26.789062 19.070312 26.789062 C 19.070312 26.75 19.070312 26.707031 19.070312 26.664062 Z M 19.070312 26.664062 "/>
<path style=" stroke:none;fill-rule:nonzero;fill:rgb(13.725491%,17.647059%,35.294119%);fill-opacity:1;" d="M 16.296875 26.664062 C 16.335938 26.664062 16.375 26.664062 16.417969 26.664062 C 16.417969 26.972656 16.417969 27.28125 16.417969 27.597656 C 16.609375 27.597656 16.800781 27.597656 17 27.597656 C 17 27.632812 17 27.667969 17 27.703125 C 16.765625 27.703125 16.535156 27.703125 16.296875 27.703125 C 16.296875 27.359375 16.296875 27.019531 16.296875 26.664062 Z M 16.296875 26.664062 "/>
<path style=" stroke:none;fill-rule:nonzero;fill:rgb(89.803922%,90.980393%,94.509804%);fill-opacity:1;" d="M 22.394531 15.3125 C 22.464844 15.347656 22.511719 15.382812 22.554688 15.453125 C 22.566406 15.539062 22.570312 15.632812 22.515625 15.710938 C 22.507812 15.722656 22.496094 15.734375 22.484375 15.75 C 22.492188 15.746094 22.503906 15.742188 22.515625 15.738281 C 22.554688 15.734375 22.554688 15.734375 22.605469 15.765625 C 22.488281 15.792969 22.34375 15.8125 22.230469 15.769531 C 22.167969 15.726562 22.121094 15.679688 22.09375 15.609375 C 22.085938 15.546875 22.082031 15.496094 22.09375 15.433594 C 22.171875 15.332031 22.269531 15.292969 22.394531 15.3125 Z M 22.394531 15.3125 "/>
<path style=" stroke:none;fill-rule:nonzero;fill:rgb(96.470588%,96.862745%,97.254902%);fill-opacity:1;" d="M 16.03125 24.539062 C 16.082031 24.582031 16.105469 24.628906 16.128906 24.691406 C 16.136719 24.714844 16.148438 24.734375 16.15625 24.753906 C 16.164062 24.773438 16.171875 24.796875 16.183594 24.816406 C 16.191406 24.835938 16.199219 24.859375 16.207031 24.878906 C 16.246094 24.972656 16.28125 25.058594 16.3125 25.15625 C 16.136719 25.15625 15.964844 25.15625 15.785156 25.15625 C 15.800781 25.078125 15.820312 25.023438 15.851562 24.953125 C 15.855469 24.941406 15.859375 24.929688 15.863281 24.917969 C 15.878906 24.886719 15.894531 24.851562 15.90625 24.816406 C 15.917969 24.792969 15.929688 24.769531 15.9375 24.746094 C 16.007812 24.582031 16.007812 24.582031 16.03125 24.539062 Z M 16.03125 24.539062 "/>
<path style=" stroke:none;fill-rule:nonzero;fill:rgb(14.117648%,19.215687%,33.725491%);fill-opacity:1;" d="M 21.269531 14.992188 C 21.269531 15.046875 21.269531 15.046875 21.25 15.074219 C 21.238281 15.082031 21.226562 15.09375 21.21875 15.101562 C 21.027344 15.3125 20.917969 15.574219 20.929688 15.855469 C 20.941406 16.011719 20.996094 16.128906 21.105469 16.242188 C 21.230469 16.347656 21.375 16.398438 21.53125 16.417969 C 21.53125 16.421875 21.53125 16.429688 21.53125 16.4375 C 21.382812 16.441406 21.261719 16.445312 21.128906 16.367188 C 21.109375 16.355469 21.09375 16.34375 21.074219 16.332031 C 20.957031 16.242188 20.878906 16.140625 20.847656 15.996094 C 20.824219 15.792969 20.84375 15.617188 20.9375 15.433594 C 20.949219 15.410156 20.949219 15.410156 20.960938 15.382812 C 21.035156 15.230469 21.148438 15.113281 21.269531 14.992188 Z M 21.269531 14.992188 "/>
<path style=" stroke:none;fill-rule:nonzero;fill:rgb(9.019608%,13.333334%,31.764707%);fill-opacity:1;" d="M 20.566406 26.664062 C 20.601562 26.664062 20.636719 26.664062 20.671875 26.664062 C 20.671875 27.007812 20.671875 27.351562 20.671875 27.703125 C 20.636719 27.703125 20.601562 27.703125 20.566406 27.703125 C 20.566406 27.359375 20.566406 27.019531 20.566406 26.664062 Z M 20.566406 26.664062 "/>
<path style=" stroke:none;fill-rule:nonzero;fill:rgb(34.901962%,38.431373%,52.941179%);fill-opacity:1;" d="M 19.070312 26.664062 C 19.34375 26.664062 19.617188 26.664062 19.898438 26.664062 C 19.898438 26.699219 19.898438 26.734375 19.898438 26.773438 C 19.894531 26.777344 19.886719 26.78125 19.882812 26.789062 C 19.769531 26.789062 19.660156 26.789062 19.546875 26.789062 C 19.546875 27.089844 19.546875 27.390625 19.546875 27.703125 C 19.507812 27.703125 19.464844 27.703125 19.421875 27.703125 C 19.421875 27.402344 19.421875 27.101562 19.421875 26.789062 C 19.308594 26.789062 19.191406 26.789062 19.070312 26.789062 C 19.070312 26.75 19.070312 26.707031 19.070312 26.664062 Z M 19.089844 26.683594 C 19.089844 26.710938 19.089844 26.742188 19.089844 26.773438 C 19.199219 26.773438 19.308594 26.773438 19.421875 26.773438 C 19.421875 26.765625 19.421875 26.761719 19.421875 26.753906 C 19.398438 26.753906 19.398438 26.753906 19.371094 26.75 C 19.347656 26.75 19.328125 26.746094 19.304688 26.746094 C 19.28125 26.746094 19.257812 26.742188 19.234375 26.742188 C 19.179688 26.734375 19.179688 26.734375 19.140625 26.71875 C 19.335938 26.71875 19.527344 26.71875 19.722656 26.71875 C 19.609375 26.726562 19.609375 26.726562 19.492188 26.734375 C 19.476562 26.746094 19.460938 26.757812 19.441406 26.773438 C 19.433594 26.8125 19.433594 26.8125 19.433594 26.859375 C 19.433594 26.878906 19.433594 26.894531 19.433594 26.914062 C 19.4375 26.933594 19.4375 26.953125 19.4375 26.976562 C 19.4375 27.003906 19.4375 27.003906 19.4375 27.035156 C 19.4375 27.101562 19.4375 27.164062 19.4375 27.230469 C 19.4375 27.273438 19.4375 27.320312 19.4375 27.363281 C 19.4375 27.46875 19.441406 27.578125 19.441406 27.6875 C 19.46875 27.6875 19.5 27.6875 19.53125 27.6875 C 19.53125 27.382812 19.53125 27.082031 19.53125 26.773438 C 19.644531 26.773438 19.761719 26.773438 19.882812 26.773438 C 19.882812 26.742188 19.882812 26.714844 19.882812 26.683594 C 19.621094 26.683594 19.359375 26.683594 19.089844 26.683594 Z M 19.089844 26.683594 "/>
<path style=" stroke:none;fill-rule:nonzero;fill:rgb(34.509805%,38.82353%,51.764709%);fill-opacity:1;" d="M 19.773438 24.0625 C 19.78125 24.0625 19.785156 24.0625 19.792969 24.0625 C 19.792969 24.65625 19.792969 25.246094 19.792969 25.859375 C 19.914062 25.859375 20.035156 25.859375 20.164062 25.859375 C 20.152344 25.492188 20.152344 25.492188 20.144531 25.117188 C 20.191406 25.09375 20.234375 25.101562 20.285156 25.101562 C 20.285156 25.089844 20.285156 25.078125 20.285156 25.066406 C 20.261719 25.0625 20.238281 25.054688 20.214844 25.046875 C 20.214844 25.039062 20.214844 25.027344 20.214844 25.015625 C 20.203125 25.007812 20.191406 25.003906 20.179688 24.996094 C 20.191406 24.996094 20.203125 24.996094 20.214844 24.996094 C 20.21875 24.980469 20.226562 24.960938 20.234375 24.945312 C 20.238281 24.960938 20.242188 24.976562 20.25 24.996094 C 20.292969 24.988281 20.292969 24.988281 20.335938 24.976562 C 20.339844 24.992188 20.34375 25.003906 20.34375 25.019531 C 20.355469 25.066406 20.355469 25.066406 20.375 25.117188 C 20.363281 25.136719 20.363281 25.136719 20.355469 25.15625 C 20.574219 25.160156 20.796875 25.164062 21.023438 25.171875 C 21.023438 25.175781 21.023438 25.183594 21.023438 25.1875 C 20.746094 25.1875 20.464844 25.1875 20.179688 25.1875 C 20.179688 25.414062 20.179688 25.640625 20.179688 25.875 C 20.046875 25.875 19.914062 25.875 19.773438 25.875 C 19.773438 25.277344 19.773438 24.679688 19.773438 24.0625 Z M 19.773438 24.0625 "/>
<path style=" stroke:none;fill-rule:nonzero;fill:rgb(12.54902%,16.470589%,31.764707%);fill-opacity:1;" d="M 22.253906 15.398438 C 22.269531 15.402344 22.289062 15.410156 22.304688 15.414062 C 22.300781 15.421875 22.296875 15.425781 22.289062 15.433594 C 22.300781 15.445312 22.3125 15.457031 22.324219 15.46875 C 22.320312 15.484375 22.3125 15.503906 22.304688 15.523438 C 22.359375 15.53125 22.359375 15.53125 22.414062 15.539062 C 22.417969 15.511719 22.421875 15.480469 22.429688 15.453125 C 22.484375 15.476562 22.5 15.484375 22.535156 15.539062 C 22.53125 15.609375 22.527344 15.648438 22.484375 15.703125 C 22.425781 15.75 22.382812 15.757812 22.308594 15.757812 C 22.246094 15.746094 22.21875 15.707031 22.183594 15.664062 C 22.160156 15.613281 22.160156 15.578125 22.164062 15.523438 C 22.191406 15.476562 22.21875 15.433594 22.253906 15.398438 Z M 22.253906 15.398438 "/>
<path style=" stroke:none;fill-rule:nonzero;fill:rgb(29.803923%,33.333334%,48.235294%);fill-opacity:1;" d="M 17.578125 26.664062 C 17.617188 26.664062 17.660156 26.664062 17.703125 26.664062 C 17.703125 26.921875 17.703125 27.175781 17.703125 27.4375 C 17.675781 27.449219 17.675781 27.449219 17.648438 27.457031 C 17.621094 27.402344 17.628906 27.339844 17.628906 27.277344 C 17.628906 27.265625 17.628906 27.253906 17.628906 27.238281 C 17.628906 27.207031 17.628906 27.171875 17.632812 27.140625 C 17.640625 27.140625 17.652344 27.140625 17.664062 27.140625 C 17.671875 26.988281 17.675781 26.839844 17.683594 26.683594 C 17.65625 26.683594 17.625 26.683594 17.59375 26.683594 C 17.59375 26.886719 17.59375 27.089844 17.59375 27.296875 C 17.589844 27.296875 17.585938 27.296875 17.578125 27.296875 C 17.578125 27.089844 17.578125 26.882812 17.578125 26.664062 Z M 17.578125 26.664062 "/>
<path style=" stroke:none;fill-rule:nonzero;fill:rgb(76.47059%,78.823531%,85.09804%);fill-opacity:1;" d="M 23.820312 16.820312 C 24.15625 16.816406 24.484375 16.816406 24.820312 16.875 C 24.820312 16.878906 24.820312 16.886719 24.820312 16.890625 C 24.746094 16.890625 24.667969 16.890625 24.59375 16.890625 C 24.585938 16.902344 24.582031 16.914062 24.574219 16.929688 C 24.574219 16.917969 24.574219 16.90625 24.574219 16.890625 C 24.558594 16.898438 24.539062 16.902344 24.523438 16.910156 C 24.511719 16.902344 24.511719 16.902344 24.503906 16.890625 C 24.480469 16.890625 24.457031 16.886719 24.433594 16.882812 C 24.363281 16.875 24.363281 16.875 24.34375 16.859375 C 24.308594 16.855469 24.269531 16.851562 24.230469 16.851562 C 24.210938 16.851562 24.210938 16.851562 24.191406 16.851562 C 24.15625 16.847656 24.117188 16.847656 24.082031 16.847656 C 24.054688 16.847656 24.03125 16.847656 24.003906 16.84375 C 23.941406 16.84375 23.878906 16.839844 23.820312 16.839844 C 23.820312 16.835938 23.820312 16.828125 23.820312 16.820312 Z M 23.820312 16.820312 "/>
<path style=" stroke:none;fill-rule:nonzero;fill:rgb(30.588236%,35.294119%,50.980395%);fill-opacity:1;" d="M 24.101562 15.46875 C 24.292969 15.46875 24.484375 15.46875 24.679688 15.46875 C 24.609375 15.503906 24.609375 15.503906 24.574219 15.503906 C 24.597656 15.53125 24.621094 15.5625 24.644531 15.59375 C 24.558594 15.617188 24.558594 15.617188 24.46875 15.644531 C 24.472656 15.65625 24.480469 15.667969 24.484375 15.679688 C 24.46875 15.679688 24.453125 15.679688 24.433594 15.679688 C 24.433594 15.667969 24.433594 15.65625 24.433594 15.644531 C 24.390625 15.636719 24.390625 15.636719 24.34375 15.625 C 24.34375 15.621094 24.34375 15.617188 24.34375 15.609375 C 24.414062 15.597656 24.484375 15.585938 24.554688 15.574219 C 24.554688 15.558594 24.554688 15.539062 24.554688 15.523438 C 24.503906 15.507812 24.453125 15.5 24.394531 15.5 C 24.367188 15.496094 24.367188 15.496094 24.34375 15.496094 C 24.324219 15.496094 24.308594 15.496094 24.289062 15.492188 C 24.269531 15.492188 24.253906 15.492188 24.234375 15.492188 C 24.1875 15.488281 24.144531 15.488281 24.101562 15.484375 C 24.101562 15.480469 24.101562 15.476562 24.101562 15.46875 Z M 24.101562 15.46875 "/>
<path style=" stroke:none;fill-rule:nonzero;fill:rgb(75.686276%,78.039217%,83.529413%);fill-opacity:1;" d="M 22.484375 16.734375 C 22.511719 16.738281 22.539062 16.738281 22.566406 16.738281 C 22.589844 16.742188 22.589844 16.742188 22.613281 16.742188 C 22.644531 16.742188 22.679688 16.742188 22.710938 16.746094 C 22.726562 16.746094 22.742188 16.746094 22.757812 16.746094 C 22.777344 16.746094 22.777344 16.746094 22.800781 16.75 C 22.835938 16.75 22.835938 16.75 22.851562 16.769531 C 22.882812 16.773438 22.914062 16.773438 22.945312 16.773438 C 22.964844 16.777344 22.984375 16.777344 23.003906 16.777344 C 23.03125 16.777344 23.03125 16.777344 23.0625 16.78125 C 23.082031 16.78125 23.105469 16.78125 23.125 16.78125 C 23.175781 16.785156 23.222656 16.785156 23.273438 16.789062 C 23.273438 16.792969 23.273438 16.796875 23.273438 16.804688 C 22.800781 16.8125 22.800781 16.8125 22.578125 16.789062 C 22.554688 16.789062 22.554688 16.789062 22.535156 16.785156 C 22.46875 16.777344 22.433594 16.769531 22.375 16.734375 C 22.421875 16.710938 22.433594 16.722656 22.484375 16.734375 Z M 22.484375 16.734375 "/>
<path style=" stroke:none;fill-rule:nonzero;fill:rgb(74.117649%,76.862746%,82.352942%);fill-opacity:1;" d="M 12.164062 19.511719 C 12.167969 19.511719 12.175781 19.511719 12.179688 19.511719 C 12.175781 19.558594 12.171875 19.601562 12.167969 19.648438 C 12.164062 19.6875 12.164062 19.722656 12.160156 19.761719 C 12.15625 19.777344 12.15625 19.796875 12.15625 19.8125 C 12.152344 19.828125 12.152344 19.84375 12.152344 19.859375 C 12.148438 19.898438 12.148438 19.898438 12.128906 19.914062 C 12.125 19.949219 12.125 19.980469 12.125 20.011719 C 12.121094 20.027344 12.121094 20.046875 12.121094 20.066406 C 12.121094 20.085938 12.121094 20.109375 12.117188 20.128906 C 12.117188 20.148438 12.117188 20.167969 12.117188 20.1875 C 12.113281 20.238281 12.113281 20.289062 12.109375 20.335938 C 12.105469 20.335938 12.101562 20.335938 12.09375 20.335938 C 12.085938 20.054688 12.097656 19.789062 12.164062 19.511719 Z M 12.164062 19.511719 "/>
<path style=" stroke:none;fill-rule:nonzero;fill:rgb(65.882355%,67.843139%,77.64706%);fill-opacity:1;" d="M 22.535156 15.453125 C 22.539062 15.453125 22.546875 15.453125 22.554688 15.453125 C 22.5625 15.574219 22.566406 15.65625 22.484375 15.75 C 22.492188 15.746094 22.503906 15.742188 22.515625 15.738281 C 22.554688 15.734375 22.554688 15.734375 22.605469 15.765625 C 22.546875 15.78125 22.492188 15.785156 22.429688 15.785156 C 22.425781 15.769531 22.417969 15.75 22.414062 15.734375 C 22.421875 15.726562 22.433594 15.722656 22.445312 15.71875 C 22.492188 15.691406 22.5 15.675781 22.515625 15.625 C 22.527344 15.582031 22.527344 15.582031 22.527344 15.535156 C 22.53125 15.511719 22.53125 15.511719 22.53125 15.488281 C 22.535156 15.476562 22.535156 15.464844 22.535156 15.453125 Z M 22.535156 15.453125 "/>
<path style=" stroke:none;fill-rule:nonzero;fill:rgb(33.333334%,38.039216%,49.411765%);fill-opacity:1;" d="M 27.917969 15.246094 C 27.941406 15.25 27.941406 15.25 27.964844 15.253906 C 27.976562 15.253906 27.988281 15.257812 28 15.257812 C 28 15.261719 28 15.269531 28 15.273438 C 27.917969 15.292969 27.839844 15.292969 27.757812 15.292969 C 27.8125 15.242188 27.84375 15.234375 27.917969 15.246094 Z M 27.917969 15.246094 "/>
</g>
</svg>
